<svg width="11" height="14" viewBox="0 0 11 14" fill="none" xmlns="http://www.w3.org/2000/svg">
<path d="M2.71997 6.0533V3.38664C2.71997 2.67939 3.00092 2.00112 3.50102 1.50102C4.00112 1.00092 4.67939 0.719971 5.38664 0.719971C6.09388 0.719971 6.77216 1.00092 7.27226 1.50102C7.77235 2.00112 8.0533 2.67939 8.0533 3.38664V6.0533M0.719971 7.38664C0.719971 7.03302 0.860446 6.69388 1.11049 6.44383C1.36054 6.19378 1.69968 6.0533 2.0533 6.0533H8.71997C9.07359 6.0533 9.41273 6.19378 9.66278 6.44383C9.91283 6.69388 10.0533 7.03302 10.0533 7.38664V11.3866C10.0533 11.7403 9.91283 12.0794 9.66278 12.3294C9.41273 12.5795 9.07359 12.72 8.71997 12.72H2.0533C1.69968 12.72 1.36054 12.5795 1.11049 12.3294C0.860446 12.0794 0.719971 11.7403 0.719971 11.3866V7.38664ZM4.71997 9.38664C4.71997 9.56345 4.79021 9.73302 4.91523 9.85804C5.04026 9.98307 5.20983 10.0533 5.38664 10.0533C5.56345 10.0533 5.73302 9.98307 5.85804 9.85804C5.98307 9.73302 6.0533 9.56345 6.0533 9.38664C6.0533 9.20983 5.98307 9.04026 5.85804 8.91523C5.73302 8.79021 5.56345 8.71997 5.38664 8.71997C5.20983 8.71997 5.04026 8.79021 4.91523 8.91523C4.79021 9.04026 4.71997 9.20983 4.71997 9.38664Z" stroke="#111625" stroke-width="1.44" stroke-linecap="round" stroke-linejoin="round"/>
</svg>
