  <svg
      width="24"
      height="24"
      viewBox="0 0 24 24"
      fill="none"
      xmlns="http://www.w3.org/2000/svg"
    >
      <g clip-path="url(#clip0_341_6696)">
        <path d="M24 4H0V20.0002H24V4Z" fill="#F0F0F0" />
        <path
          d="M13.5 3.99976H10.5V10.4997H0V13.4997H10.5V19.9997H13.5V13.4997H24V10.4997H13.5V3.99976Z"
          fill="#D80027"
        />
        <path
          d="M18.4587 14.7822L24.0001 17.8608V14.7822H18.4587Z"
          fill="#0052B4"
        />
        <path
          d="M14.6089 14.7822L24.0002 19.9996V18.5243L17.2646 14.7822H14.6089Z"
          fill="#0052B4"
        />
        <path
          d="M21.4987 19.9999L14.6089 16.1719V19.9999H21.4987Z"
          fill="#0052B4"
        />
        <path
          d="M14.6088 14.7822L24.0001 19.9996V18.5243L17.2645 14.7822H14.6088Z"
          fill="#F0F0F0"
        />
        <path
          d="M14.6088 14.7822L24.0001 19.9996V18.5243L17.2645 14.7822H14.6088Z"
          fill="#D80027"
        />
        <path d="M4.23473 14.7822L0 17.1349V14.7822H4.23473Z" fill="#0052B4" />
        <path
          d="M9.39125 15.4458V19.9998H1.19482L9.39125 15.4458Z"
          fill="#0052B4"
        />
        <path
          d="M6.73561 14.7822L0 18.5243V19.9996L9.39131 14.7822H6.73561Z"
          fill="#D80027"
        />
        <path d="M5.54133 9.21699L0 6.13843V9.21699H5.54133Z" fill="#0052B4" />
        <path
          d="M9.39131 9.21689L0 3.99951V5.47486L6.73561 9.21689H9.39131Z"
          fill="#0052B4"
        />
        <path
          d="M2.50146 3.99951L9.39125 7.82751V3.99951H2.50146Z"
          fill="#0052B4"
        />
        <path
          d="M9.39131 9.21713L0 3.99976V5.4751L6.73561 9.21713H9.39131Z"
          fill="#F0F0F0"
        />
        <path
          d="M9.39131 9.21713L0 3.99976V5.4751L6.73561 9.21713H9.39131Z"
          fill="#D80027"
        />
        <path
          d="M19.7654 9.21691L24.0001 6.86426V9.21691H19.7654Z"
          fill="#0052B4"
        />
        <path
          d="M14.6088 8.55371V3.99976H22.8052L14.6088 8.55371Z"
          fill="#0052B4"
        />
        <path
          d="M17.2645 9.21713L24.0001 5.4751V3.99976L14.6088 9.21713H17.2645Z"
          fill="#D80027"
        />
      </g>
      <defs>
        <clipPath id="clip0_341_6696">
          <rect width="24" height="24" fill="white" />
        </clipPath>
      </defs>
    </svg>