<svg width="26" height="26" viewBox="0 0 26 26" fill="none" xmlns="http://www.w3.org/2000/svg">
<path fill-rule="evenodd" clip-rule="evenodd" d="M4.66667 0C3.42899 0 2.242 0.491665 1.36684 1.36684C0.491665 2.242 0 3.42899 0 4.66667V21C0 22.2377 0.491665 23.4247 1.36684 24.2998C2.242 25.175 3.42899 25.6667 4.66667 25.6667H21C22.2377 25.6667 23.4247 25.175 24.2998 24.2998C25.175 23.4247 25.6667 22.2377 25.6667 21V4.66667C25.6667 3.42899 25.175 2.242 24.2998 1.36684C23.4247 0.491665 22.2377 0 21 0H4.66667ZM4.08333 9.0545C4.08333 8.39533 4.61767 7.86217 5.27683 7.86217H14.0268C14.7651 7.86217 15.4731 8.15545 15.9952 8.67748C16.5172 9.19952 16.8105 9.90756 16.8105 10.6458V16.6122C16.8105 17.2702 16.2762 17.8045 15.617 17.8045H6.867C6.12873 17.8045 5.42069 17.5112 4.89865 16.9892C4.37661 16.4671 4.08333 15.7591 4.08333 15.0208V9.0545ZM20.629 8.1795C20.7177 8.11286 20.8232 8.07228 20.9336 8.06232C21.0441 8.05236 21.1551 8.07342 21.2543 8.12311C21.3535 8.17281 21.4368 8.24919 21.4949 8.34365C21.553 8.43812 21.5837 8.54692 21.5833 8.65783V17.0088C21.5837 17.1197 21.553 17.2286 21.4949 17.323C21.4368 17.4175 21.3535 17.4939 21.2543 17.5436C21.1551 17.5933 21.0441 17.6143 20.9336 17.6043C20.8232 17.5944 20.7177 17.5538 20.629 17.4872L18.0833 15.5762C17.9348 15.4653 17.8142 15.3213 17.7312 15.1556C17.6481 14.99 17.6049 14.8072 17.605 14.6218V11.0425C17.605 10.6668 17.7823 10.3133 18.0833 10.0882L20.629 8.1795Z" fill="#266DF0"/>
</svg>
