<svg width="15" height="15" viewBox="0 0 15 15" fill="none" xmlns="http://www.w3.org/2000/svg">
<path d="M6.09385 1.58785C6.41335 0.270848 8.28685 0.270848 8.60635 1.58785C8.65428 1.7857 8.74826 1.96943 8.88063 2.1241C9.013 2.27876 9.18001 2.39999 9.36809 2.47791C9.55616 2.55583 9.75997 2.58824 9.96294 2.5725C10.1659 2.55676 10.3623 2.49332 10.5361 2.38735C11.6933 1.68235 13.0186 3.00685 12.3136 4.16485C12.2078 4.33859 12.1444 4.53485 12.1287 4.73768C12.113 4.9405 12.1454 5.14417 12.2232 5.33213C12.3011 5.52009 12.4222 5.68703 12.5766 5.81939C12.7311 5.95174 12.9147 6.04578 13.1123 6.09385C14.4293 6.41335 14.4293 8.28685 13.1123 8.60635C12.9145 8.65428 12.7308 8.74826 12.5761 8.88063C12.4214 9.013 12.3002 9.18001 12.2223 9.36809C12.1444 9.55616 12.112 9.75997 12.1277 9.96294C12.1434 10.1659 12.2069 10.3623 12.3128 10.5361C13.0178 11.6933 11.6933 13.0186 10.5353 12.3136C10.3616 12.2078 10.1653 12.1444 9.96252 12.1287C9.75969 12.113 9.55602 12.1454 9.36806 12.2232C9.1801 12.3011 9.01316 12.4222 8.88081 12.5766C8.74845 12.7311 8.65442 12.9147 8.60635 13.1123C8.28685 14.4293 6.41335 14.4293 6.09385 13.1123C6.04591 12.9145 5.95193 12.7308 5.81956 12.5761C5.6872 12.4214 5.52018 12.3002 5.33211 12.2223C5.14404 12.1444 4.94022 12.112 4.73726 12.1277C4.53429 12.1434 4.33791 12.2069 4.1641 12.3128C3.00685 13.0178 1.6816 11.6933 2.3866 10.5353C2.49242 10.3616 2.55576 10.1653 2.57146 9.96252C2.58716 9.75969 2.55478 9.55602 2.47695 9.36806C2.39912 9.1801 2.27804 9.01316 2.12355 8.88081C1.96906 8.74845 1.78552 8.65442 1.58785 8.60635C0.270848 8.28685 0.270848 6.41335 1.58785 6.09385C1.7857 6.04591 1.96943 5.95193 2.1241 5.81956C2.27876 5.6872 2.39999 5.52018 2.47791 5.33211C2.55583 5.14404 2.58824 4.94022 2.5725 4.73726C2.55676 4.53429 2.49332 4.33791 2.38735 4.1641C1.68235 3.00685 3.00685 1.6816 4.16485 2.3866C4.91485 2.8426 5.88685 2.4391 6.09385 1.58785Z" stroke="#111625" stroke-width="1.2" stroke-linecap="round" stroke-linejoin="round"/>
<path d="M5.1001 7.3501C5.1001 7.94683 5.33715 8.51913 5.75911 8.94109C6.18106 9.36304 6.75336 9.6001 7.3501 9.6001C7.94683 9.6001 8.51913 9.36304 8.94109 8.94109C9.36304 8.51913 9.6001 7.94683 9.6001 7.3501C9.6001 6.75336 9.36304 6.18106 8.94109 5.75911C8.51913 5.33715 7.94683 5.1001 7.3501 5.1001C6.75336 5.1001 6.18106 5.33715 5.75911 5.75911C5.33715 6.18106 5.1001 6.75336 5.1001 7.3501Z" stroke="#111625" stroke-width="1.2" stroke-linecap="round" stroke-linejoin="round"/>
</svg>
