<svg width="18" height="18" viewBox="0 0 18 18" fill="none" xmlns="http://www.w3.org/2000/svg">
<mask id="mask0_1_7161" style="mask-type:luminance" maskUnits="userSpaceOnUse" x="0" y="0" width="18" height="18">
<path d="M18 0H0V18H18V0Z" fill="white"/>
</mask>
<g mask="url(#mask0_1_7161)">
<mask id="mask1_1_7161" style="mask-type:alpha" maskUnits="userSpaceOnUse" x="0" y="0" width="18" height="18">
<path d="M9 0C16.5 0 18 1.5 18 9C18 16.5 16.5 18 9 18C1.5 18 0 16.5 0 9C0 1.5 1.5 0 9 0Z" fill="white"/>
</mask>
<g mask="url(#mask1_1_7161)">
<path d="M18 0H0V18H18V0Z" fill="#FFFF00"/>
<path d="M0.8712 4.21148C0.69575 4.78544 0.817295 5.47485 1.06037 6.85365L1.54756 9.6171C1.7278 10.6395 1.84122 11.2828 2.03502 11.7424L0 12.1013V18H2.25L14.9114 15.766C16.5968 15.4688 17.7222 13.8612 17.4251 12.1755C17.2911 11.4155 16.8908 10.7693 16.3371 10.3161C16.4824 10.1058 16.5956 9.87305 16.6712 9.6255C16.8467 9.05155 16.7251 8.3621 16.4821 6.9833L15.9949 4.21989C15.7518 2.84106 15.6302 2.15165 15.2691 1.67232C14.9514 1.25069 14.5085 0.94047 14.0037 0.786115C13.4299 0.61064 12.7406 0.732205 11.3619 0.975325L4.3044 2.21997C2.9258 2.46309 2.23651 2.58466 1.75725 2.94585C1.3357 3.26357 1.02552 3.70662 0.8712 4.21148Z" fill="#7000FF"/>
<path d="M8.99984 3.48047C8.79199 3.48047 8.58769 3.48927 8.38509 3.50689L8.38159 6.3633H9.61459V3.50689C9.41199 3.48047 9.20769 3.48047 8.99984 3.48047Z" fill="white"/>
<path d="M11.4362 9.66619C12.0823 9.02009 12.4453 8.14374 12.4453 7.22999V5.16739C11.9985 5.01814 11.5417 4.9004 11.0784 4.81509V7.21764C11.0784 8.94559 10.3457 9.84919 8.99999 9.84919C7.65429 9.84919 6.92329 8.94559 6.92329 7.21764V4.81509C6.45944 4.90062 6.00214 5.01834 5.55469 5.16739V7.22999C5.55469 8.14374 5.91764 9.02009 6.56379 9.66619C7.20989 10.3123 8.08624 10.6873 8.99999 10.6873C9.91374 10.6873 10.7901 10.3123 11.4362 9.66619Z" fill="white"/>
<path d="M10.209 14.4017H10.751V13.4872L11.5989 14.4017H12.2383L11.3626 13.4456L12.1688 12.5311H11.5294L10.751 13.4041V11.9492H10.209V14.4017Z" fill="white"/>
<path d="M3.66264 12.8361C3.80163 12.6282 4.05181 12.4897 4.39929 12.4897C4.98306 12.4897 5.26105 12.8638 5.26105 13.321V14.4156H4.71898V13.4042C4.71898 13.1825 4.59388 12.9885 4.32979 12.9885C4.06571 12.9885 3.94062 13.1686 3.94062 13.3903V14.4156H3.39855V13.3903C3.39855 13.1686 3.25956 12.9885 2.99547 12.9885C2.73139 12.9885 2.62019 13.1825 2.62019 13.4042V14.4156H2.07812V13.321C2.07812 12.8638 2.37001 12.4897 2.95377 12.4897C3.24566 12.4897 3.53754 12.6282 3.66264 12.8361Z" fill="white"/>
<path fill-rule="evenodd" clip-rule="evenodd" d="M7.74877 13.7506V12.5312H7.20667V12.8222C7.09547 12.6421 6.88702 12.4897 6.52562 12.4897C5.90017 12.4897 5.58047 12.9746 5.58047 13.4596C5.56657 13.9584 5.92797 14.4433 6.49782 14.4433C6.80362 14.4433 7.08157 14.3048 7.20667 14.0692C7.26227 14.2217 7.40127 14.3879 7.67927 14.3879H7.98502V13.9307H7.90162C7.79042 13.9584 7.74877 13.9168 7.74877 13.7506ZM6.63682 13.9861C6.33102 13.9861 6.09472 13.7783 6.09472 13.4734C6.09472 13.1825 6.33102 12.9746 6.63682 12.9746C6.95647 12.9746 7.17887 13.1825 7.17887 13.4734C7.19277 13.7644 6.95647 13.9861 6.63682 13.9861Z" fill="white"/>
<path d="M8.44434 14.4018H8.98639V13.5705C8.98639 13.2518 9.22269 13.044 9.51459 13.044H9.87594V12.4897H9.61189C9.27829 12.4897 9.04199 12.7668 8.98639 12.9331V12.5313H8.44434V14.4018Z" fill="white"/>
<path fill-rule="evenodd" clip-rule="evenodd" d="M12.8355 13.612C12.8355 13.8199 12.9467 14.0277 13.2942 14.0277C13.6138 14.0277 13.6555 13.8337 13.6555 13.8337H14.2532C14.2532 13.8337 14.1976 14.4434 13.2942 14.4434C12.6687 14.4434 12.2656 14.097 12.2656 13.4596C12.2656 12.8361 12.6548 12.4897 13.2803 12.4897C13.8918 12.4897 14.2949 12.8361 14.2949 13.4596C14.2949 13.5289 14.281 13.5982 14.281 13.5982H12.8355V13.612ZM12.8494 13.2795H13.725C13.725 13.1271 13.6416 12.9054 13.2942 12.9054C12.9467 12.9193 12.8494 13.1271 12.8494 13.2795Z" fill="white"/>
<path d="M15.5881 13.9304C15.4074 13.9304 15.3379 13.8472 15.3379 13.584V12.9328H15.9217V12.4894H15.3379V12.1153H15.046L14.5178 12.6141V12.9189H14.7958V13.6533C14.7958 14.1798 15.0599 14.4015 15.5881 14.4015H15.9217V13.9304H15.5881Z" fill="white"/>
</g>
</g>
</svg>
