<svg width="20" height="20" viewBox="0 0 20 20" fill="none" xmlns="http://www.w3.org/2000/svg">
<path d="M13.3332 10.8333L17.6857 13.735C17.7484 13.7768 17.8213 13.8007 17.8966 13.8043C17.9719 13.8079 18.0467 13.791 18.1132 13.7555C18.1796 13.7199 18.2352 13.6669 18.2739 13.6023C18.3127 13.5376 18.3331 13.4637 18.3332 13.3883V6.55833C18.3332 6.48502 18.3139 6.413 18.2772 6.34954C18.2404 6.28608 18.1876 6.23344 18.1241 6.19692C18.0605 6.1604 17.9884 6.1413 17.9151 6.14155C17.8418 6.14179 17.7698 6.16138 17.7065 6.19833L13.3332 8.75M3.33317 5H11.6665C12.587 5 13.3332 5.74619 13.3332 6.66667V13.3333C13.3332 14.2538 12.587 15 11.6665 15H3.33317C2.4127 15 1.6665 14.2538 1.6665 13.3333V6.66667C1.6665 5.74619 2.4127 5 3.33317 5Z" stroke="#1B1B1B" stroke-width="1.5" stroke-linecap="round" stroke-linejoin="round"/>
</svg>
