<svg width="16" height="16" viewBox="0 0 16 16" fill="none" xmlns="http://www.w3.org/2000/svg">
<path d="M13.176 8.8125H10.2698C9.88451 8.8121 9.51483 8.9645 9.24179 9.23627C8.96875 9.50805 8.81464 9.87701 8.81325 10.2623V13.1685C8.81305 13.3598 8.85059 13.5493 8.92372 13.7261C8.99684 13.9029 9.10412 14.0636 9.23941 14.1988C9.3747 14.3341 9.53534 14.4414 9.71214 14.5145C9.88894 14.5877 10.0784 14.6252 10.2698 14.625H13.176C13.5611 14.6234 13.9299 14.4692 14.2015 14.1962C14.4731 13.9232 14.6254 13.5536 14.625 13.1685V10.2623C14.6252 10.0719 14.5879 9.8834 14.5151 9.70751C14.4424 9.53162 14.3356 9.3718 14.201 9.23721C14.0664 9.10262 13.9066 8.9959 13.7307 8.92315C13.5549 8.8504 13.3663 8.81305 13.176 8.81325M5.10525 8.8125H2.199C1.81395 8.81468 1.4454 8.96917 1.1739 9.24222C0.902393 9.51528 0.749995 9.88469 0.750001 10.2698V13.176C0.749803 13.3663 0.787148 13.5549 0.859897 13.7307C0.932646 13.9066 1.03937 14.0664 1.17396 14.201C1.30855 14.3356 1.46837 14.4424 1.64426 14.5151C1.82015 14.5879 2.00866 14.6252 2.199 14.625H5.10525C5.49036 14.6254 5.85993 14.4731 6.13294 14.2015C6.40596 13.9299 6.56016 13.5611 6.56175 13.176V10.2698C6.56195 10.0784 6.52441 9.88894 6.45128 9.71214C6.37816 9.53534 6.27088 9.3747 6.13559 9.23941C6.0003 9.10412 5.83966 8.99684 5.66286 8.92372C5.48606 8.85059 5.29658 8.81305 5.10525 8.81325M5.10525 0.750001H2.199C2.00866 0.749803 1.82015 0.787148 1.64426 0.859897C1.46837 0.932646 1.30855 1.03937 1.17396 1.17396C1.03937 1.30855 0.932646 1.46837 0.859897 1.64426C0.787148 1.82015 0.749803 2.00866 0.750001 2.199V5.10525C0.7496 5.49036 0.901895 5.85993 1.17351 6.13294C1.44512 6.40596 1.81389 6.56016 2.199 6.56175H5.10525C5.29658 6.56195 5.48606 6.52441 5.66286 6.45128C5.83966 6.37816 6.0003 6.27088 6.13559 6.13559C6.27088 6.0003 6.37816 5.83966 6.45128 5.66286C6.52441 5.48606 6.56195 5.29658 6.56175 5.10525V2.199C6.56016 1.81389 6.40596 1.44512 6.13294 1.17351C5.85993 0.901895 5.49036 0.7496 5.10525 0.750001ZM13.176 0.750001H10.2698C9.88464 0.7496 9.51507 0.901895 9.24206 1.17351C8.96904 1.44512 8.81484 1.81389 8.81325 2.199V5.10525C8.81345 5.49148 8.96697 5.86183 9.24007 6.13493C9.51317 6.40804 9.88352 6.56155 10.2698 6.56175H13.176C13.5611 6.56016 13.9299 6.40596 14.2015 6.13294C14.4731 5.85993 14.6254 5.49036 14.625 5.10525V2.199C14.6252 2.00866 14.5879 1.82015 14.5151 1.64426C14.4424 1.46837 14.3356 1.30855 14.201 1.17396C14.0664 1.03937 13.9066 0.932646 13.7307 0.859897C13.5549 0.787148 13.3663 0.749803 13.176 0.750001Z" stroke="#B8FFB0" stroke-width="1.5" stroke-linecap="round" stroke-linejoin="round"/>
</svg>
