<svg width="13" height="16" viewBox="0 0 13 16" fill="none" xmlns="http://www.w3.org/2000/svg">
<path d="M3.75 14.25H2.25C1.85218 14.25 1.47064 14.092 1.18934 13.8107C0.908035 13.5294 0.75 13.1478 0.75 12.75V2.25C0.75 1.85218 0.908035 1.47064 1.18934 1.18934C1.47064 0.908035 1.85218 0.75 2.25 0.75H8.25C8.64782 0.75 9.02936 0.908035 9.31066 1.18934C9.59196 1.47064 9.75 1.85218 9.75 2.25V4.875M9 11.25L6 9.375M9 11.25V14.625M9 11.25L12 9.375M6 9.375L9 7.5L12 9.375M6 9.375V12.75L9 14.625M12 9.375V12.75L9 14.625M4.5 1.5H6" stroke="#8796AF" stroke-width="1.5" stroke-linecap="round" stroke-linejoin="round"/>
</svg>
