<svg width="13" height="14" viewBox="0 0 13 14" fill="none" xmlns="http://www.w3.org/2000/svg">
<path d="M0.780029 3.44645H11.4467M4.78003 6.11312V10.1131M7.4467 6.11312V10.1131M1.4467 3.44645L2.11336 11.4465C2.11336 11.8001 2.25384 12.1392 2.50389 12.3893C2.75394 12.6393 3.09307 12.7798 3.4467 12.7798H8.78003C9.13365 12.7798 9.47279 12.6393 9.72284 12.3893C9.97289 12.1392 10.1134 11.8001 10.1134 11.4465L10.78 3.44645M4.11336 3.44645V1.44645C4.11336 1.26964 4.1836 1.10007 4.30863 0.975047C4.43365 0.850023 4.60322 0.779785 4.78003 0.779785H7.4467C7.62351 0.779785 7.79308 0.850023 7.9181 0.975047C8.04312 1.10007 8.11336 1.26964 8.11336 1.44645V3.44645" stroke="#DF1C41" stroke-width="1.56" stroke-linecap="round" stroke-linejoin="round"/>
</svg>
