<svg width="28" height="26" viewBox="0 0 28 26" fill="none" xmlns="http://www.w3.org/2000/svg">
<g clip-path="url(#clip0_1_7071)">
<path d="M19.5303 9.71484H26.7627C27.4461 9.71484 28 10.2658 28 10.9454V17.4978C28 19.9955 25.9642 22.0205 23.4529 22.0205H23.4314C20.9202 22.0208 18.884 19.9963 18.8837 17.4984V10.3581C18.8837 10.2736 18.9003 10.19 18.9328 10.1119C18.9653 10.0339 19.0129 9.96293 19.073 9.90319C19.133 9.84345 19.2043 9.79607 19.2828 9.76375C19.3613 9.73143 19.4454 9.71482 19.5303 9.71484Z" fill="#5059C9"/>
<path d="M24.4186 8.41983C26.037 8.41983 27.3489 7.11496 27.3489 5.50532C27.3489 3.89569 26.037 2.59082 24.4186 2.59082C22.8003 2.59082 21.4884 3.89569 21.4884 5.50532C21.4884 7.11496 22.8003 8.41983 24.4186 8.41983Z" fill="#5059C9"/>
<path d="M15.3023 8.41965C17.6399 8.41965 19.5349 6.53485 19.5349 4.20982C19.5349 1.8848 17.6399 0 15.3023 0C12.9647 0 11.0697 1.8848 11.0697 4.20982C11.0697 6.53485 12.9647 8.41965 15.3023 8.41965Z" fill="#7B83EB"/>
<path d="M20.946 9.71484H9.00759C8.33242 9.73149 7.79834 10.2888 7.81398 10.9603V18.4337C7.7197 22.4635 10.9251 25.8078 14.9767 25.9064C19.0283 25.8078 22.2338 22.4635 22.1396 18.4337V10.9603C22.1552 10.2888 21.6212 9.73149 20.946 9.71484Z" fill="#7B83EB"/>
<path opacity="0.1" d="M15.628 9.71484V20.1875C15.6264 20.4224 15.5551 20.6516 15.423 20.8464C15.291 21.0411 15.104 21.1927 14.8856 21.2821C14.7434 21.342 14.5906 21.3727 14.4363 21.3727H8.38689C8.30223 21.159 8.22414 20.9452 8.15895 20.7251C7.931 19.982 7.81472 19.2093 7.81387 18.4324V10.9584C7.79823 10.2879 8.33144 9.73149 9.00551 9.71495L15.628 9.71484Z" fill="black"/>
<path opacity="0.2" d="M14.9767 9.71484V20.8352C14.9767 20.9887 14.9458 21.1407 14.8856 21.2821C14.7957 21.4993 14.6433 21.6853 14.4475 21.8166C14.2517 21.948 14.0213 22.0189 13.7851 22.0205H8.69313C8.58245 21.8067 8.47821 21.5929 8.3871 21.3727C8.29957 21.1611 8.22348 20.9449 8.15916 20.7251C7.93122 19.982 7.81494 19.2093 7.81409 18.4324V10.9584C7.79845 10.2879 8.33165 9.73149 9.00573 9.71495L14.9767 9.71484Z" fill="black"/>
<path opacity="0.2" d="M14.9767 9.71484V19.5399C14.9718 20.1924 14.4412 20.7202 13.7851 20.7251H8.15904C7.9311 19.982 7.81481 19.2093 7.81396 18.4324V10.9584C7.79832 10.2879 8.33153 9.73149 9.0056 9.71495L14.9767 9.71484Z" fill="black"/>
<path opacity="0.2" d="M14.3256 9.71484V19.5399C14.3206 20.1924 13.79 20.7202 13.134 20.7251H8.15904C7.9311 19.982 7.81481 19.2093 7.81396 18.4324V10.9584C7.79832 10.2879 8.33153 9.73149 9.0056 9.71495L14.3256 9.71484Z" fill="black"/>
<path opacity="0.1" d="M15.6279 6.36638V8.40646C15.5172 8.41299 15.413 8.41951 15.3023 8.41951C15.1916 8.41951 15.0874 8.41299 14.9767 8.40646C14.7569 8.39195 14.539 8.35728 14.3256 8.30289C13.6755 8.14976 13.0712 7.84577 12.5619 7.41577C12.0526 6.98577 11.6528 6.44198 11.3953 5.82887C11.3054 5.62001 11.2357 5.40313 11.187 5.18115H14.4363C15.0933 5.18365 15.6254 5.71279 15.6279 6.36638Z" fill="black"/>
<path opacity="0.2" d="M14.9767 7.01422V8.40669C14.7569 8.39219 14.539 8.35752 14.3256 8.30313C13.6756 8.14998 13.0712 7.84598 12.5619 7.41598C12.0526 6.98598 11.6529 6.4422 11.3954 5.8291H13.7851C14.4422 5.83149 14.9742 6.36074 14.9767 7.01422Z" fill="black"/>
<path opacity="0.2" d="M14.9767 7.01422V8.40669C14.7569 8.39219 14.539 8.35752 14.3256 8.30313C13.6756 8.14998 13.0712 7.84598 12.5619 7.41598C12.0526 6.98598 11.6529 6.4422 11.3954 5.8291H13.7851C14.4422 5.83149 14.9742 6.36074 14.9767 7.01422Z" fill="black"/>
<path opacity="0.2" d="M14.3256 7.01433V8.30324C13.6755 8.15009 13.0711 7.84608 12.5619 7.41607C12.0526 6.98605 11.6528 6.44224 11.3954 5.8291H13.134C13.7911 5.8316 14.3231 6.36085 14.3256 7.01433Z" fill="black"/>
<path d="M1.19361 5.82872H13.1319C13.7912 5.82872 14.3256 6.36025 14.3256 7.01591V18.8901C14.3256 19.5457 13.7912 20.0773 13.132 20.0773H1.19361C0.534406 20.0773 0 19.5457 0 18.8901V7.01602C0 6.36014 0.534406 5.82872 1.19361 5.82872Z" fill="url(#paint0_linear_1_7071)"/>
<path d="M10.304 10.3481H7.91743V16.8118H6.39701V10.3481H4.02161V9.09424H10.304V10.3481Z" fill="white"/>
</g>
<defs>
<linearGradient id="paint0_linear_1_7071" x1="248.864" y1="-86.9301" x2="1176.16" y2="1527.78" gradientUnits="userSpaceOnUse">
<stop stop-color="#5A62C3"/>
<stop offset="0.5" stop-color="#4D55BD"/>
<stop offset="1" stop-color="#3940AB"/>
</linearGradient>
<clipPath id="clip0_1_7071">
<rect width="28" height="26" fill="white"/>
</clipPath>
</defs>
</svg>
