<svg width="18" height="18" viewBox="0 0 18 18" fill="none" xmlns="http://www.w3.org/2000/svg">
<path d="M6.375 7.125C6.78921 7.125 7.125 6.78921 7.125 6.375C7.125 5.96079 6.78921 5.625 6.375 5.625C5.96079 5.625 5.625 5.96079 5.625 6.375C5.625 6.78921 5.96079 7.125 6.375 7.125Z" fill="black"/>
<path d="M6.375 7.125C6.78921 7.125 7.125 6.78921 7.125 6.375C7.125 5.96079 6.78921 5.625 6.375 5.625C5.96079 5.625 5.625 5.96079 5.625 6.375C5.625 6.78921 5.96079 7.125 6.375 7.125Z" stroke="#8796AF" stroke-width="1.5" stroke-linecap="round" stroke-linejoin="round"/>
<path d="M3 5.25V8.14425C3 8.547 3.15975 8.93325 3.44475 9.21825L9.53175 15.3053C9.67278 15.4463 9.84022 15.5582 10.0245 15.6345C10.2088 15.7109 10.4063 15.7502 10.6058 15.7502C10.8052 15.7502 11.0027 15.7109 11.187 15.6345C11.3713 15.5582 11.5387 15.4463 11.6798 15.3053L15.3053 11.6798C15.4463 11.5387 15.5582 11.3713 15.6345 11.187C15.7109 11.0027 15.7502 10.8052 15.7502 10.6058C15.7502 10.4063 15.7109 10.2088 15.6345 10.0245C15.5582 9.84022 15.4463 9.67278 15.3053 9.53175L9.2175 3.44475C8.93283 3.16012 8.5468 3.00016 8.14425 3H5.25C4.65326 3 4.08097 3.23705 3.65901 3.65901C3.23705 4.08097 3 4.65326 3 5.25Z" stroke="#8796AF" stroke-width="1.5" stroke-linecap="round" stroke-linejoin="round"/>
</svg>
