<svg width="17" height="17" viewBox="0 0 17 17" fill="none" xmlns="http://www.w3.org/2000/svg">
<path d="M8.09997 5.84961H8.10747M7.34997 8.09961H8.09997V11.0996H8.84997M5.92722 0.59961H10.2727C10.5683 0.599575 10.861 0.657778 11.1341 0.770894C11.4071 0.884011 11.6553 1.04982 11.8642 1.25886L14.94 4.33386C15.1494 4.54304 15.3155 4.79149 15.4288 5.06497C15.542 5.33846 15.6002 5.6316 15.6 5.92761V10.2731C15.6 10.5687 15.5418 10.8614 15.4287 11.1344C15.3156 11.4075 15.1498 11.6556 14.9407 11.8646L11.8657 14.9404C11.6567 15.1496 11.4085 15.3156 11.1353 15.4289C10.8621 15.5421 10.5692 15.6004 10.2735 15.6004H5.92722C5.6316 15.6003 5.33888 15.542 5.0658 15.4287C4.79272 15.3155 4.54464 15.1495 4.33573 14.9404L1.25998 11.8654C1.05063 11.6563 0.884571 11.4079 0.771319 11.1346C0.658067 10.8612 0.599842 10.5682 0.599976 10.2724V5.92686C0.59994 5.63128 0.658144 5.3386 0.77126 5.06552C0.884377 4.79244 1.05019 4.54433 1.25923 4.33536L4.33423 1.25961C4.5434 1.05017 4.79185 0.884065 5.06534 0.77081C5.33882 0.657555 5.63197 0.599377 5.92798 0.59961H5.92722Z" stroke="#111625" stroke-width="1.2" stroke-linecap="round" stroke-linejoin="round"/>
</svg>
