<svg width="16" height="17" viewBox="0 0 16 17" fill="none" xmlns="http://www.w3.org/2000/svg">
<path d="M0.75 3C0.75 4.24275 3.4365 5.25 6.75 5.25C10.0635 5.25 12.75 4.24275 12.75 3M0.75 3C0.75 1.75725 3.4365 0.75 6.75 0.75C10.0635 0.75 12.75 1.75725 12.75 3M0.75 3V7.5M12.75 3V7.125M0.75 7.5C0.75 8.74275 3.4365 9.75 6.75 9.75C6.9075 9.75 7.065 9.74775 7.2195 9.7425M0.75 7.5V12C0.75 13.2427 3.4365 14.25 6.75 14.25M12.0007 14.25C11.6029 14.25 11.2214 14.092 10.9401 13.8107C10.6588 13.5294 10.5007 13.1478 10.5007 12.75C10.5007 12.3522 10.6588 11.9706 10.9401 11.6893C11.2214 11.408 11.6029 11.25 12.0007 11.25M12.0007 14.25C12.3986 14.25 12.7801 14.092 13.0614 13.8107C13.3427 13.5294 13.5007 13.1478 13.5007 12.75C13.5007 12.3522 13.3427 11.9706 13.0614 11.6893C12.7801 11.408 12.3986 11.25 12.0007 11.25M12.0007 14.25V15.375M12.0007 11.25V10.125M14.2739 11.4375L13.2997 12M10.7025 13.5L9.72748 14.0625M9.72748 11.4375L10.7025 12M13.2997 13.5L14.2747 14.0625" stroke="#8796AF" stroke-width="1.5" stroke-linecap="round" stroke-linejoin="round"/>
</svg>
