<svg width="15" height="15" viewBox="0 0 15 15" fill="none" xmlns="http://www.w3.org/2000/svg">
<path d="M7.5 5.25H7.5075M6.75 7.5H7.5V10.5H8.25M0.75 7.5C0.75 8.38642 0.924594 9.26417 1.26381 10.0831C1.60303 10.9021 2.10023 11.6462 2.72703 12.273C3.35382 12.8998 4.09794 13.397 4.91689 13.7362C5.73583 14.0754 6.61358 14.25 7.5 14.25C8.38642 14.25 9.26417 14.0754 10.0831 13.7362C10.9021 13.397 11.6462 12.8998 12.273 12.273C12.8998 11.6462 13.397 10.9021 13.7362 10.0831C14.0754 9.26417 14.25 8.38642 14.25 7.5C14.25 5.70979 13.5388 3.9929 12.273 2.72703C11.0071 1.46116 9.29021 0.75 7.5 0.75C5.70979 0.75 3.9929 1.46116 2.72703 2.72703C1.46116 3.9929 0.75 5.70979 0.75 7.5Z" stroke="#8796AF" stroke-width="1.5" stroke-linecap="round" stroke-linejoin="round"/>
</svg>
