<svg width="56" height="27" viewBox="0 0 56 27" fill="none" xmlns="http://www.w3.org/2000/svg">
<path d="M34.7111 0.00167885H21.2889C18.3242 0.00167885 15.9201 2.40406 15.9201 5.36885C15.9201 8.33363 18.3242 10.7377 21.2889 10.7377H34.7111C37.6758 10.7377 40.0799 8.33363 40.0799 5.36885C40.0799 2.40406 37.6758 0 34.7111 0V0.00167885ZM33.368 8.72647C32.401 8.72647 31.5314 8.31684 30.9186 7.66211C30.1967 6.86971 29.1575 6.37446 28.0008 6.37446C26.8441 6.37446 25.8033 6.86971 25.0814 7.66378C24.4686 8.31684 23.599 8.72647 22.632 8.72647C20.7786 8.72647 19.2761 7.22394 19.2761 5.37052C19.2761 3.51711 20.7786 2.01458 22.632 2.01458C23.599 2.01458 24.4686 2.42421 25.0814 3.07727C25.8033 3.86967 26.8425 4.36492 28.0008 4.36492C29.1575 4.36492 30.1984 3.86967 30.9203 3.07559C31.5331 2.42253 32.4027 2.0129 33.3697 2.0129C35.2231 2.0129 36.7256 3.51544 36.7256 5.36885C36.7256 7.22226 35.2231 8.72479 33.3697 8.72479L33.368 8.72647Z" fill="#00524F"/>
<path d="M5.12029 18.2786V20.2224H4.10888C3.55049 20.2224 3.07639 20.412 2.68657 20.7913C2.29676 21.1706 2.10185 21.6605 2.10185 22.261V26.4331H0V18.3892H2.02283V19.29C2.68657 18.6157 3.50308 18.2786 4.47235 18.2786H5.12029Z" fill="#00524F"/>
<path d="M9.38054 26.6228C8.61144 26.6228 7.88975 26.4489 7.21548 26.1012C6.55173 25.743 6.01969 25.2479 5.61933 24.6157C5.21898 23.9731 5.01881 23.2408 5.01881 22.4191C5.01881 21.5973 5.21898 20.8651 5.61933 20.2224C6.01969 19.5797 6.55173 19.0845 7.21548 18.7369C7.88975 18.3787 8.61144 18.1996 9.38054 18.1996C10.1496 18.1996 10.8661 18.3787 11.5298 18.7369C12.2041 19.0845 12.7414 19.5797 13.1417 20.2224C13.5421 20.8651 13.7423 21.5973 13.7423 22.4191C13.7423 23.2408 13.5421 23.9731 13.1417 24.6157C12.7414 25.2479 12.2041 25.743 11.5298 26.1012C10.8661 26.4489 10.1496 26.6228 9.38054 26.6228ZM9.38054 24.6789C10.0232 24.6789 10.5605 24.463 10.9925 24.031C11.4244 23.599 11.6404 23.0617 11.6404 22.4191C11.6404 21.7659 11.4244 21.2233 10.9925 20.7913C10.5605 20.3594 10.0232 20.1434 9.38054 20.1434C8.73787 20.1434 8.20055 20.3594 7.76859 20.7913C7.33663 21.2233 7.12065 21.7659 7.12065 22.4191C7.12065 23.0617 7.33663 23.599 7.76859 24.031C8.20055 24.463 8.73787 24.6789 9.38054 24.6789Z" fill="#00524F"/>
<path d="M19.4025 18.1996C20.0873 18.1996 20.7405 18.3787 21.3621 18.7369C21.9837 19.0951 22.4841 19.5955 22.8634 20.2382C23.2427 20.8809 23.4323 21.6026 23.4323 22.4033C23.4323 23.2145 23.2427 23.9415 22.8634 24.5841C22.4841 25.2268 21.9837 25.7272 21.3621 26.0854C20.7405 26.4437 20.0873 26.6228 19.4025 26.6228C18.8441 26.6228 18.3542 26.5437 17.9328 26.3857C17.5113 26.2171 17.1373 25.959 16.8107 25.6113V26.4331H14.7879V15.0547H16.8897V19.132C17.2058 18.8159 17.564 18.5841 17.9644 18.4366C18.3752 18.2786 18.8546 18.1996 19.4025 18.1996ZM19.0706 24.6789C19.7133 24.6789 20.2506 24.463 20.6825 24.031C21.1145 23.599 21.3305 23.0565 21.3305 22.4033C21.3305 21.7606 21.1145 21.2233 20.6825 20.7913C20.2506 20.3594 19.7133 20.1434 19.0706 20.1434C18.4279 20.1434 17.8906 20.3594 17.4587 20.7913C17.0267 21.2233 16.8107 21.7606 16.8107 22.4033C16.8107 23.0565 17.0267 23.599 17.4587 24.031C17.8906 24.463 18.4279 24.6789 19.0706 24.6789Z" fill="#00524F"/>
<path d="M28.21 26.6228C27.4409 26.6228 26.7192 26.4489 26.0449 26.1012C25.3812 25.743 24.8492 25.2479 24.4488 24.6157C24.0485 23.9731 23.8483 23.2408 23.8483 22.4191C23.8483 21.5973 24.0485 20.8651 24.4488 20.2224C24.8492 19.5797 25.3812 19.0845 26.0449 18.7369C26.7192 18.3787 27.4409 18.1996 28.21 18.1996C28.9791 18.1996 29.6955 18.3787 30.3593 18.7369C31.0335 19.0845 31.5709 19.5797 31.9712 20.2224C32.3716 20.8651 32.5717 21.5973 32.5717 22.4191C32.5717 23.2408 32.3716 23.9731 31.9712 24.6157C31.5709 25.2479 31.0335 25.743 30.3593 26.1012C29.6955 26.4489 28.9791 26.6228 28.21 26.6228ZM28.21 24.6789C28.8527 24.6789 29.39 24.463 29.822 24.031C30.2539 23.599 30.4699 23.0617 30.4699 22.4191C30.4699 21.7659 30.2539 21.2233 29.822 20.7913C29.39 20.3594 28.8527 20.1434 28.21 20.1434C27.5673 20.1434 27.03 20.3594 26.5981 20.7913C26.1661 21.2233 25.9501 21.7659 25.9501 22.4191C25.9501 23.0617 26.1661 23.599 26.5981 24.031C27.03 24.463 27.5673 24.6789 28.21 24.6789Z" fill="#00524F"/>
<path d="M36.6832 26.6228C35.9984 26.6228 35.3926 26.5069 34.8658 26.2751C34.339 26.0433 33.9282 25.722 33.6332 25.3111C33.3382 24.9002 33.1749 24.4366 33.1433 23.9204H35.2293C35.2609 24.1838 35.4084 24.4103 35.6718 24.5999C35.9352 24.7896 36.2723 24.8844 36.6832 24.8844C37.0625 24.8844 37.3575 24.8264 37.5682 24.7105C37.7894 24.5841 37.9001 24.3945 37.9001 24.1416C37.9001 23.8888 37.7736 23.7044 37.5208 23.5885C37.2679 23.4621 36.8676 23.3357 36.3197 23.2092C35.7087 23.0617 35.203 22.909 34.8026 22.7509C34.4128 22.5929 34.0757 22.34 33.7912 21.9924C33.5067 21.6447 33.3645 21.1706 33.3645 20.5701C33.3645 20.1276 33.5015 19.7272 33.7754 19.369C34.0599 19.0003 34.4444 18.7158 34.929 18.5156C35.4137 18.3049 35.9615 18.1996 36.5726 18.1996C37.1415 18.1996 37.6683 18.3155 38.1529 18.5472C38.6376 18.7685 39.0274 19.0793 39.3224 19.4796C39.6279 19.8694 39.7912 20.3119 39.8123 20.8071H37.7578C37.7368 20.5543 37.6103 20.3488 37.3786 20.1908C37.1573 20.0222 36.8623 19.9379 36.4936 19.9379C36.1775 19.9379 35.9246 19.9906 35.735 20.096C35.5559 20.2013 35.4664 20.3488 35.4664 20.5385C35.4664 20.7913 35.5928 20.981 35.8456 21.1074C36.109 21.2338 36.5252 21.3602 37.0941 21.4867C37.6946 21.6342 38.1845 21.7869 38.5638 21.945C38.9536 22.0925 39.2908 22.3348 39.5752 22.6719C39.8597 22.9985 40.0019 23.441 40.0019 23.9994C40.0019 24.8212 39.6964 25.4638 39.0853 25.9274C38.4743 26.391 37.6736 26.6228 36.6832 26.6228Z" fill="#00524F"/>
<path d="M44.8759 18.1996C45.6134 18.1996 46.3035 18.3787 46.9461 18.7369C47.5993 19.0951 48.1156 19.585 48.4949 20.2066C48.8847 20.8282 49.0796 21.5235 49.0796 22.2926C49.0796 22.5771 49.048 22.8774 48.9848 23.1934H42.8215C42.9374 23.7413 43.1744 24.168 43.5326 24.4735C43.8908 24.7685 44.3439 24.916 44.8917 24.916C45.3131 24.916 45.6661 24.8422 45.9505 24.6947C46.2455 24.5367 46.4878 24.3049 46.6775 23.9994H48.7951C48.4896 24.7685 47.9997 25.4006 47.3254 25.8958C46.6511 26.3804 45.8346 26.6228 44.8759 26.6228C44.1384 26.6228 43.4431 26.4489 42.7899 26.1012C42.1367 25.743 41.6151 25.2479 41.2253 24.6157C40.8355 23.9731 40.6406 23.2408 40.6406 22.4191C40.6406 21.5973 40.8355 20.8651 41.2253 20.2224C41.6151 19.5797 42.1314 19.0845 42.7741 18.7369C43.4273 18.3787 44.1279 18.1996 44.8759 18.1996ZM44.8759 19.9063C44.3491 19.9063 43.9066 20.0538 43.5484 20.3488C43.2007 20.6333 42.9637 21.0389 42.8373 21.5657H46.9303C46.825 21.0705 46.5985 20.6702 46.2508 20.3646C45.9137 20.0591 45.4554 19.9063 44.8759 19.9063Z" fill="#00524F"/>
<path d="M52.2183 26.4331H50.1165V15.0547H52.2183V26.4331Z" fill="#00524F"/>
<path d="M56 26.4331H53.8981V15.0547H56V26.4331Z" fill="#00524F"/>
</svg>
