<svg width="28" height="23" viewBox="0 0 28 23" fill="none" xmlns="http://www.w3.org/2000/svg">
<g clip-path="url(#clip0_1_7056)">
<path d="M15.8399 11.4804L18.5696 14.5899L22.2404 16.9275L22.879 11.5L22.2404 6.19482L18.4992 8.24836L15.8399 11.4804Z" fill="#00832D"/>
<path d="M0 16.4226V21.0476C0 22.1037 0.860125 22.9611 1.91997 22.9611H6.56075L7.52172 19.4665L6.56075 16.4226L3.37684 15.4648L0 16.4226Z" fill="#0066DA"/>
<path d="M6.56075 0L0 6.53854L3.37706 7.49397L6.56075 6.53854L7.50422 3.536L6.56075 0Z" fill="#E94235"/>
<path d="M0.00012207 16.4249H6.56076V6.53857H0.00012207V16.4249Z" fill="#2684FC"/>
<path d="M26.4315 2.76874L22.2403 6.19541V16.928L26.4487 20.368C27.0787 20.8598 28.0003 20.4116 28.0003 19.6135V3.50801C28.0003 2.70104 27.0568 2.255 26.4314 2.76884" fill="#00AC47"/>
<path d="M15.8399 11.4805V16.4225H6.56076V22.9611H20.3206C21.3804 22.9611 22.2404 22.1036 22.2404 21.0476V16.9277L15.8399 11.4805Z" fill="#00AC47"/>
<path d="M20.3206 0H6.56076V6.53854H15.8399V11.4806L22.2405 6.19496V1.91358C22.2405 0.857322 21.3804 0.000109005 20.3206 0.000109005" fill="#FFBA00"/>
</g>
<defs>
<clipPath id="clip0_1_7056">
<rect width="28" height="23" fill="white"/>
</clipPath>
</defs>
</svg>
