<svg width="20" height="20" viewBox="0 0 20 20" fill="none" xmlns="http://www.w3.org/2000/svg">
<path d="M11.0283 16.8763L17.4999 10.2496M13.3333 4.99961L6.3216 12.1546C6.00915 12.4672 5.83362 12.891 5.83362 13.3329C5.83362 13.7749 6.00915 14.1987 6.3216 14.5113C6.63415 14.8237 7.05799 14.9993 7.49993 14.9993C7.94188 14.9993 8.36572 14.8237 8.67827 14.5113L15.6899 7.35628C16.3148 6.73119 16.6659 5.88349 16.6659 4.99961C16.6659 4.11573 16.3148 3.26804 15.6899 2.64295C15.0648 2.01804 14.2171 1.66699 13.3333 1.66699C12.4494 1.66699 11.6017 2.01804 10.9766 2.64295L3.9641 9.79711C3.02634 10.7349 2.49951 12.0068 2.49951 13.3329C2.49951 14.6591 3.02634 15.931 3.9641 16.8688C4.90186 17.8065 6.17374 18.3334 7.49993 18.3334C8.82613 18.3334 10.098 17.8065 11.0358 16.8688" stroke="#73757C" stroke-width="1.5" stroke-linecap="round" stroke-linejoin="round"/>
</svg>
