<svg width="40" height="40" viewBox="0 0 40 40" fill="none" xmlns="http://www.w3.org/2000/svg">
<g clip-path="url(#clip0_341_6255)">
<mask id="mask0_341_6255" style="mask-type:luminance" maskUnits="userSpaceOnUse" x="0" y="0" width="40" height="40">
<path d="M40 0H0V40H40V0Z" fill="white"/>
</mask>
<g mask="url(#mask0_341_6255)">
<mask id="mask1_341_6255" style="mask-type:alpha" maskUnits="userSpaceOnUse" x="0" y="0" width="40" height="40">
<path d="M20 0C36.6667 0 40 3.33333 40 20C40 36.6667 36.6667 40 20 40C3.33333 40 0 36.6667 0 20C0 3.33333 3.33333 0 20 0Z" fill="white"/>
</mask>
<g mask="url(#mask1_341_6255)">
<path d="M40 0H0V40H40V0Z" fill="#FFFF00"/>
<path d="M1.936 9.35885C1.54611 10.6343 1.81621 12.1663 2.35639 15.2303L3.43902 21.3713C3.83956 23.6432 4.09159 25.0728 4.52227 26.0943L0 26.8919V40H5L33.1364 35.0356C36.8819 34.375 39.3828 30.8028 38.7223 27.0567C38.4247 25.3678 37.5351 23.9318 36.3047 22.9247C36.6277 22.4572 36.8791 21.9401 37.0472 21.39C37.4371 20.1146 37.167 18.5824 36.6269 15.5184L35.5442 9.37752C35.004 6.31347 34.7339 4.78143 33.9314 3.71627C33.2254 2.77931 32.2411 2.08993 31.1193 1.74692C29.8441 1.35698 28.3123 1.62712 25.2488 2.16739L9.56533 4.93326C6.50178 5.47353 4.97001 5.74368 3.90501 6.54633C2.96821 7.25238 2.27894 8.23692 1.936 9.35885Z" fill="#7000FF"/>
<path d="M20.0008 7.73438C19.539 7.73438 19.085 7.75394 18.6347 7.79309L18.627 14.1407H21.367V7.79309C20.9167 7.73438 20.4627 7.73438 20.0008 7.73438Z" fill="white"/>
<path d="M25.4137 21.4794C26.8495 20.0437 27.6562 18.0962 27.6562 16.0657V11.4821C26.6633 11.1504 25.6483 10.8888 24.6187 10.6992V16.0382C24.6187 19.8781 22.9904 21.8861 20 21.8861C17.0095 21.8861 15.3851 19.8781 15.3851 16.0382V10.6992C14.3543 10.8893 13.3381 11.1509 12.3438 11.4821V16.0657C12.3438 18.0962 13.1503 20.0437 14.5862 21.4794C16.022 22.9152 17.9694 23.7485 20 23.7485C22.0305 23.7485 23.978 22.9152 25.4137 21.4794Z" fill="white"/>
<path d="M22.6875 32.0046H23.8921V29.9724L25.7762 32.0046H27.1971L25.2512 29.88L27.0426 27.8478H25.6217L23.8921 29.7877V26.5547H22.6875V32.0046Z" fill="white"/>
<path d="M8.13832 28.5256C8.44719 28.0637 9.00315 27.7559 9.77533 27.7559C11.0726 27.7559 11.6904 28.5872 11.6904 29.6033V32.0357H10.4857V29.7881C10.4857 29.2954 10.2078 28.8643 9.6209 28.8643C9.03404 28.8643 8.75607 29.2646 8.75607 29.7573V32.0357H7.55147V29.7573C7.55147 29.2646 7.24259 28.8643 6.65573 28.8643C6.06888 28.8643 5.82179 29.2954 5.82179 29.7881V32.0357H4.61719V29.6033C4.61719 28.5872 5.26582 27.7559 6.56308 27.7559C7.21171 27.7559 7.86033 28.0637 8.13832 28.5256Z" fill="white"/>
<path fill-rule="evenodd" clip-rule="evenodd" d="M17.2197 30.5579V27.8482H16.015V28.4949C15.7679 28.0945 15.3047 27.7559 14.5016 27.7559C13.1117 27.7559 12.4013 28.8335 12.4013 29.9112C12.3704 31.0196 13.1735 32.0973 14.4398 32.0973C15.1194 32.0973 15.737 31.7894 16.015 31.266C16.1386 31.6047 16.4475 31.9742 17.0653 31.9742H17.7447V30.9581H17.5594C17.3123 31.0196 17.2197 30.9273 17.2197 30.5579ZM14.7487 31.0813C14.0691 31.0813 13.544 30.6194 13.544 29.942C13.544 29.2954 14.0691 28.8335 14.7487 28.8335C15.459 28.8335 15.9533 29.2954 15.9533 29.942C15.9841 30.5886 15.459 31.0813 14.7487 31.0813Z" fill="white"/>
<path d="M18.7656 32.005H19.9702V30.1575C19.9702 29.4493 20.4953 28.9875 21.144 28.9875H21.947V27.7559H21.3602C20.6188 27.7559 20.0937 28.3716 19.9702 28.7412V27.8482H18.7656V32.005Z" fill="white"/>
<path fill-rule="evenodd" clip-rule="evenodd" d="M28.5241 30.2499C28.5241 30.7117 28.7713 31.1736 29.5435 31.1736C30.2538 31.1736 30.3465 30.7425 30.3465 30.7425H31.6747C31.6747 30.7425 31.5511 32.0973 29.5435 32.0973C28.1536 32.0973 27.2578 31.3275 27.2578 29.9112C27.2578 28.5256 28.1227 27.7559 29.5126 27.7559C30.8716 27.7559 31.7674 28.5256 31.7674 29.9112C31.7674 30.0652 31.7365 30.2191 31.7365 30.2191H28.5241V30.2499ZM28.555 29.511H30.5009C30.5009 29.1722 30.3156 28.6796 29.5435 28.6796C28.7713 28.7104 28.555 29.1722 28.555 29.511Z" fill="white"/>
<path d="M34.6401 30.9554C34.2385 30.9554 34.0841 30.7707 34.0841 30.1857V28.7385H35.3814V27.7532H34.0841V26.9219H33.4355L32.2617 28.0303V28.7078H32.8795V30.3397C32.8795 31.5097 33.4664 32.0023 34.6401 32.0023H35.3814V30.9554H34.6401Z" fill="white"/>
</g>
</g>
</g>
<defs>
<clipPath id="clip0_341_6255">
<rect width="40" height="40" fill="white"/>
</clipPath>
</defs>
</svg>
