<svg width="28" height="13" viewBox="0 0 28 13" fill="none" xmlns="http://www.w3.org/2000/svg">
<path d="M21.7778 0.00194571H6.22222C2.78619 0.00194571 0 2.78619 0 6.22222C0 9.65826 2.78619 12.4444 6.22222 12.4444H21.7778C25.2138 12.4444 28 9.65826 28 6.22222C28 2.78619 25.2138 0 21.7778 0V0.00194571ZM20.2212 10.1135C19.1005 10.1135 18.0927 9.6388 17.3825 8.88C16.5459 7.96164 15.3415 7.38767 14.001 7.38767C12.6604 7.38767 11.4541 7.96164 10.6175 8.88194C9.9073 9.6388 8.89945 10.1135 7.77875 10.1135C5.63074 10.1135 3.88938 8.37218 3.88938 6.22417C3.88938 4.07616 5.63074 2.33479 7.77875 2.33479C8.89945 2.33479 9.9073 2.80953 10.6175 3.5664C11.4541 4.48475 12.6585 5.05872 14.001 5.05872C15.3415 5.05872 16.5478 4.48475 17.3845 3.56445C18.0946 2.80759 19.1025 2.33285 20.2232 2.33285C22.3712 2.33285 24.1126 4.07421 24.1126 6.22222C24.1126 8.37023 22.3712 10.1116 20.2232 10.1116L20.2212 10.1135Z" fill="#00524F"/>
</svg>
