<svg width="18" height="19" viewBox="0 0 18 19" fill="none" xmlns="http://www.w3.org/2000/svg">
<path d="M1 0.25H17C17.1989 0.25 17.3896 0.329075 17.5303 0.469727C17.6709 0.610379 17.75 0.801087 17.75 1V3.1709C17.7502 3.53231 17.6793 3.89068 17.541 4.22461C17.4028 4.55845 17.1999 4.86172 16.9443 5.11719L13.1162 8.94434C12.8818 9.17872 12.75 9.49662 12.75 9.82812V16C12.75 16.1425 12.7092 16.282 12.6328 16.4023C12.5574 16.521 12.4501 16.6162 12.3232 16.6768L12.2285 16.7148L6.2373 18.7119C6.12456 18.7495 6.00419 18.7592 5.88672 18.7412C5.76929 18.7233 5.65788 18.6779 5.56152 18.6084C5.46513 18.5389 5.38616 18.4476 5.33203 18.3418C5.27795 18.236 5.24997 18.1188 5.25 18V10.2725C5.24995 9.96153 5.13399 9.66169 4.9248 9.43164L0.964844 5.07715C0.553517 4.62475 0.303864 4.04797 0.256836 3.43848L0.25 3.21777V1C0.25 0.801088 0.329074 0.610379 0.469727 0.469727C0.610379 0.329074 0.801088 0.25 1 0.25Z" fill="url(#paint0_linear_1_4645)" stroke="url(#paint1_linear_1_4645)" stroke-width="0.5"/>
<defs>
<linearGradient id="paint0_linear_1_4645" x1="9" y1="0" x2="9" y2="19.0002" gradientUnits="userSpaceOnUse">
<stop stop-color="white"/>
<stop offset="1" stop-color="white" stop-opacity="0.3"/>
</linearGradient>
<linearGradient id="paint1_linear_1_4645" x1="9" y1="0" x2="9" y2="19.0002" gradientUnits="userSpaceOnUse">
<stop stop-color="white" stop-opacity="0"/>
<stop offset="1" stop-color="white" stop-opacity="0.5"/>
</linearGradient>
</defs>
</svg>
