<svg width="11" height="14" viewBox="0 0 11 14" fill="none" xmlns="http://www.w3.org/2000/svg">
<path d="M6.59998 0.600098V3.26676C6.59998 3.44358 6.67021 3.61314 6.79524 3.73817C6.92026 3.86319 7.08983 3.93343 7.26664 3.93343H9.93331M6.59998 0.600098H1.93331C1.57969 0.600098 1.24055 0.740573 0.9905 0.990622C0.740451 1.24067 0.599976 1.57981 0.599976 1.93343V11.2668C0.599976 11.6204 0.740451 11.9595 0.9905 12.2096C1.24055 12.4596 1.57969 12.6001 1.93331 12.6001H8.59998C8.9536 12.6001 9.29274 12.4596 9.54278 12.2096C9.79283 11.9595 9.93331 11.6204 9.93331 11.2668V3.93343M6.59998 0.600098L9.93331 3.93343M7.26664 8.6001H3.26664M3.26664 8.6001L4.93331 10.2668M3.26664 8.6001L4.93331 6.93343" stroke="white" stroke-width="1.2" stroke-linecap="round" stroke-linejoin="round"/>
</svg>
