<svg width="116" height="70" viewBox="0 0 116 70" fill="none" xmlns="http://www.w3.org/2000/svg">
<path d="M70.549 8.29293H45.451C39.9071 8.29293 35.4117 12.7852 35.4117 18.329C35.4117 23.8729 39.9071 28.3683 45.451 28.3683H70.549C76.0929 28.3683 80.5883 23.8729 80.5883 18.329C80.5883 12.7852 76.0929 8.28979 70.549 8.28979V8.29293ZM68.0377 24.6075C66.2295 24.6075 64.6034 23.8415 63.4575 22.6172C62.1077 21.1355 60.1645 20.2094 58.0016 20.2094C55.8387 20.2094 53.8923 21.1355 52.5425 22.6203C51.3967 23.8415 49.7705 24.6075 47.9623 24.6075C44.4966 24.6075 41.687 21.7979 41.687 18.3322C41.687 14.8665 44.4966 12.0569 47.9623 12.0569C49.7705 12.0569 51.3967 12.8228 52.5425 14.044C53.8923 15.5257 55.8355 16.4518 58.0016 16.4518C60.1645 16.4518 62.1108 15.5257 63.4607 14.0408C64.6065 12.8197 66.2326 12.0537 68.0408 12.0537C71.5065 12.0537 74.3161 14.8633 74.3161 18.329C74.3161 21.7947 71.5065 24.6043 68.0408 24.6043L68.0377 24.6075Z" fill="#00524F"/>
<path d="M11.1641 45.7891V49.4239H9.27281C8.22868 49.4239 7.34216 49.7785 6.61324 50.4877C5.88432 51.1969 5.51986 52.113 5.51986 53.2359V61.0373H1.5896V45.996H5.3721V47.6804C6.61324 46.4195 8.14003 45.7891 9.95248 45.7891H11.1641Z" fill="#00524F"/>
<path d="M19.1303 61.3919C17.6922 61.3919 16.3427 61.0669 15.0819 60.4168C13.8407 59.7469 12.8458 58.821 12.0972 57.639C11.3486 56.4373 10.9743 55.0681 10.9743 53.5314C10.9743 51.9948 11.3486 50.6256 12.0972 49.4239C12.8458 48.2221 13.8407 47.2962 15.0819 46.6461C16.3427 45.9763 17.6922 45.6414 19.1303 45.6414C20.5685 45.6414 21.9081 45.9763 23.1492 46.6461C24.4101 47.2962 25.4148 48.2221 26.1634 49.4239C26.912 50.6256 27.2863 51.9948 27.2863 53.5314C27.2863 55.0681 26.912 56.4373 26.1634 57.639C25.4148 58.821 24.4101 59.7469 23.1492 60.4168C21.9081 61.0669 20.5685 61.3919 19.1303 61.3919ZM19.1303 57.7572C20.3321 57.7572 21.3368 57.3533 22.1445 56.5456C22.9522 55.7379 23.3561 54.7332 23.3561 53.5314C23.3561 52.31 22.9522 51.2954 22.1445 50.4877C21.3368 49.68 20.3321 49.2761 19.1303 49.2761C17.9286 49.2761 16.9239 49.68 16.1161 50.4877C15.3084 51.2954 14.9046 52.31 14.9046 53.5314C14.9046 54.7332 15.3084 55.7379 16.1161 56.5456C16.9239 57.3533 17.9286 57.7572 19.1303 57.7572Z" fill="#00524F"/>
<path d="M37.8704 45.6414C39.1509 45.6414 40.3724 45.9763 41.5347 46.6461C42.697 47.3159 43.6328 48.2517 44.342 49.4534C45.0512 50.6551 45.4058 52.0046 45.4058 53.5019C45.4058 55.0188 45.0512 56.3782 44.342 57.5799C43.6328 58.7816 42.697 59.7174 41.5347 60.3872C40.3724 61.057 39.1509 61.3919 37.8704 61.3919C36.8263 61.3919 35.9102 61.2442 35.1222 60.9487C34.3341 60.6335 33.6348 60.1508 33.024 59.5007V61.0373H29.2415V39.7607H33.1718V47.3849C33.7628 46.7938 34.4326 46.3604 35.1813 46.0846C35.9496 45.7891 36.846 45.6414 37.8704 45.6414ZM37.2498 57.7572C38.4515 57.7572 39.4563 57.3533 40.264 56.5456C41.0717 55.7379 41.4756 54.7233 41.4756 53.5019C41.4756 52.3001 41.0717 51.2954 40.264 50.4877C39.4563 49.68 38.4515 49.2761 37.2498 49.2761C36.0481 49.2761 35.0434 49.68 34.2356 50.4877C33.4279 51.2954 33.024 52.3001 33.024 53.5019C33.024 54.7233 33.4279 55.7379 34.2356 56.5456C35.0434 57.3533 36.0481 57.7572 37.2498 57.7572Z" fill="#00524F"/>
<path d="M54.3397 61.3919C52.9015 61.3919 51.552 61.0669 50.2912 60.4168C49.0501 59.7469 48.0552 58.821 47.3066 57.639C46.5579 56.4373 46.1836 55.0681 46.1836 53.5314C46.1836 51.9948 46.5579 50.6256 47.3066 49.4239C48.0552 48.2221 49.0501 47.2962 50.2912 46.6461C51.552 45.9763 52.9015 45.6414 54.3397 45.6414C55.7778 45.6414 57.1174 45.9763 58.3586 46.6461C59.6194 47.2962 60.6241 48.2221 61.3727 49.4239C62.1214 50.6256 62.4957 51.9948 62.4957 53.5314C62.4957 55.0681 62.1214 56.4373 61.3727 57.639C60.6241 58.821 59.6194 59.7469 58.3586 60.4168C57.1174 61.0669 55.7778 61.3919 54.3397 61.3919ZM54.3397 57.7572C55.5414 57.7572 56.5461 57.3533 57.3538 56.5456C58.1616 55.7379 58.5654 54.7332 58.5654 53.5314C58.5654 52.31 58.1616 51.2954 57.3538 50.4877C56.5461 49.68 55.5414 49.2761 54.3397 49.2761C53.1379 49.2761 52.1332 49.68 51.3255 50.4877C50.5177 51.2954 50.1139 52.31 50.1139 53.5314C50.1139 54.7332 50.5177 55.7379 51.3255 56.5456C52.1332 57.3533 53.1379 57.7572 54.3397 57.7572Z" fill="#00524F"/>
<path d="M72.6955 45.6414C73.8776 45.6414 74.9316 45.927 75.8575 46.4983C76.7834 47.0499 77.5025 47.8183 78.0147 48.8033C78.5466 49.7883 78.8126 50.8915 78.8126 52.113V61.0373H74.8823V52.8518C74.8823 51.7682 74.5967 50.9014 74.0253 50.2513C73.4737 49.6012 72.7054 49.2761 71.7204 49.2761C70.7551 49.2761 69.9572 49.611 69.3268 50.2808C68.6963 50.931 68.3811 51.7879 68.3811 52.8518V61.0373H64.4509V39.7607H68.3811V47.3849C69.5632 46.2225 71.0013 45.6414 72.6955 45.6414Z" fill="#00524F"/>
<path d="M88.3891 61.3919C86.951 61.3919 85.7 61.0964 84.6362 60.5054C83.592 59.9144 82.7843 59.087 82.213 58.0231C81.6417 56.9396 81.356 55.6985 81.356 54.2997V45.996H85.2863V54.2997C85.2863 55.3439 85.5621 56.1811 86.1137 56.8116C86.685 57.442 87.4435 57.7572 88.3891 57.7572C89.315 57.7572 90.0637 57.442 90.635 56.8116C91.2063 56.1811 91.492 55.3439 91.492 54.2997V45.996H95.4222V54.2997C95.4222 55.6985 95.1366 56.9396 94.5652 58.0231C93.9939 59.087 93.1763 59.9144 92.1125 60.5054C91.0684 61.0964 89.8273 61.3919 88.3891 61.3919Z" fill="#00524F"/>
<path d="M106.875 45.6414C108.156 45.6414 109.377 45.9763 110.539 46.6461C111.702 47.3159 112.637 48.2517 113.347 49.4534C114.056 50.6551 114.41 52.0046 114.41 53.5019C114.41 55.0188 114.056 56.3782 113.347 57.5799C112.637 58.7816 111.702 59.7174 110.539 60.3872C109.377 61.057 108.156 61.3919 106.875 61.3919C105.831 61.3919 104.915 61.2442 104.127 60.9487C103.339 60.6335 102.639 60.1508 102.029 59.5007V61.0373H98.2462V39.7607H102.176V47.3849C102.767 46.7938 103.437 46.3604 104.186 46.0846C104.954 45.7891 105.851 45.6414 106.875 45.6414ZM106.254 57.7572C107.456 57.7572 108.461 57.3533 109.269 56.5456C110.076 55.7379 110.48 54.7233 110.48 53.5019C110.48 52.3001 110.076 51.2954 109.269 50.4877C108.461 49.68 107.456 49.2761 106.254 49.2761C105.053 49.2761 104.048 49.68 103.24 50.4877C102.433 51.2954 102.029 52.3001 102.029 53.5019C102.029 54.7233 102.433 55.7379 103.24 56.5456C104.048 57.3533 105.053 57.7572 106.254 57.7572Z" fill="#00524F"/>
</svg>
