<svg width="13" height="12" viewBox="0 0 13 12" fill="none" xmlns="http://www.w3.org/2000/svg">
<path d="M9.26676 9.93331C9.62039 9.93331 9.95952 10.0738 10.2096 10.3238C10.4596 10.5739 10.6001 10.913 10.6001 11.2666C10.6001 10.913 10.7406 10.5739 10.9906 10.3238C11.2407 10.0738 11.5798 9.93331 11.9334 9.93331C11.5798 9.93331 11.2407 9.79283 10.9906 9.54278C10.7406 9.29274 10.6001 8.9536 10.6001 8.59998C10.6001 8.9536 10.4596 9.29274 10.2096 9.54278C9.95952 9.79283 9.62039 9.93331 9.26676 9.93331ZM9.26676 1.93331C9.62039 1.93331 9.95952 2.07378 10.2096 2.32383C10.4596 2.57388 10.6001 2.91302 10.6001 3.26664C10.6001 2.91302 10.7406 2.57388 10.9906 2.32383C11.2407 2.07378 11.5798 1.93331 11.9334 1.93331C11.5798 1.93331 11.2407 1.79283 10.9906 1.54278C10.7406 1.29274 10.6001 0.953598 10.6001 0.599976C10.6001 0.953598 10.4596 1.29274 10.2096 1.54278C9.95952 1.79283 9.62039 1.93331 9.26676 1.93331ZM4.6001 9.93331C4.6001 8.87244 5.02152 7.85503 5.77167 7.10488C6.52182 6.35474 7.53923 5.93331 8.6001 5.93331C7.53923 5.93331 6.52182 5.51188 5.77167 4.76174C5.02152 4.01159 4.6001 2.99417 4.6001 1.93331C4.6001 2.99417 4.17867 4.01159 3.42852 4.76174C2.67838 5.51188 1.66096 5.93331 0.600098 5.93331C1.66096 5.93331 2.67838 6.35474 3.42852 7.10488C4.17867 7.85503 4.6001 8.87244 4.6001 9.93331Z" stroke="white" stroke-width="1.2" stroke-linecap="round" stroke-linejoin="round"/>
</svg>
