<svg width="15" height="15" viewBox="0 0 15 15" fill="none" xmlns="http://www.w3.org/2000/svg">
<path d="M9 9.75V11.25C9 11.4489 8.92098 11.6397 8.78033 11.7803C8.63968 11.921 8.44891 12 8.25 12H3L0.75 14.25V6.75C0.75 6.55109 0.829018 6.36032 0.96967 6.21967C1.11032 6.07902 1.30109 6 1.5 6H3M14.25 9L12 6.75H6.75C6.55109 6.75 6.36032 6.67098 6.21967 6.53033C6.07902 6.38968 6 6.19891 6 6V1.5C6 1.30109 6.07902 1.11032 6.21967 0.96967C6.36032 0.829018 6.55109 0.75 6.75 0.75H13.5C13.6989 0.75 13.8897 0.829018 14.0303 0.96967C14.171 1.11032 14.25 1.30109 14.25 1.5V9Z" stroke="#B8FFB0" stroke-width="1.5" stroke-linecap="round" stroke-linejoin="round"/>
</svg>
