<svg width="12" height="15" viewBox="0 0 12 15" fill="none" xmlns="http://www.w3.org/2000/svg">
<path d="M7.5 0.75V3.75C7.5 3.94891 7.57902 4.13968 7.71967 4.28033C7.86032 4.42098 8.05109 4.5 8.25 4.5H11.25M7.5 0.75H2.25C1.85218 0.75 1.47064 0.908035 1.18934 1.18934C0.908035 1.47064 0.75 1.85218 0.75 2.25V12.75C0.75 13.1478 0.908035 13.5294 1.18934 13.8107C1.47064 14.092 1.85218 14.25 2.25 14.25H9.75C10.1478 14.25 10.5294 14.092 10.8107 13.8107C11.092 13.5294 11.25 13.1478 11.25 12.75V4.5M7.5 0.75L11.25 4.5M3.75 5.25H4.5M3.75 8.25H8.25M3.75 11.25H8.25" stroke="#B8FFB0" stroke-width="1.5" stroke-linecap="round" stroke-linejoin="round"/>
</svg>
