<svg width="52" height="52" viewBox="0 0 52 52" fill="none" xmlns="http://www.w3.org/2000/svg">
<g clip-path="url(#clip0_341_6278)">
<path fill-rule="evenodd" clip-rule="evenodd" d="M25.3404 51.9918C24.4537 51.7414 23.79 51.3199 23.4383 50.7438C22.3463 48.9566 22.3217 44.8883 22.3025 40.185L22.2929 38.8413C22.2574 34.0969 22.2286 30.0054 23.9419 28.5371C24.6056 27.9719 25.5498 27.7844 26.8293 27.9883C31.6954 28.745 32.1127 31.7624 32.4904 34.4281L32.5315 34.7237L32.7559 36.2248C33.1938 39.0903 34.1093 45.0375 34.1093 48.1438C34.1093 48.9183 34.0408 49.5136 33.9177 49.8406C33.7111 50.3456 33.1117 50.8327 32.2783 51.2364C30.01 51.7982 27.6765 52.0523 25.3404 51.9918ZM17.68 50.6398C17.1847 50.4723 16.6946 50.2897 16.2103 50.0924C15.886 49.4999 15.6369 48.5653 15.4796 47.3419C15.0006 43.5089 15.4166 37.7657 16.5127 37.6986C17.5295 37.6412 18.1822 42.6742 18.3136 46.4907C18.4053 49.1605 18.1275 50.2525 17.68 50.6398ZM10.868 47.1448C4.28726 42.4279 0 34.7168 0 26.0055C0 11.6439 11.6412 0 26 0C40.3233 0 51.9384 11.5823 52 25.8905V26.1177C51.9822 32.2351 49.7987 38.1486 45.8366 42.8097C45.6984 42.7413 45.4425 42.5086 44.9827 41.8135C44.5093 41.1183 40.4218 34.7688 40.4218 27.4902C40.4218 26.0616 42.4607 23.8297 44.2657 21.8701C45.6163 20.3963 46.8931 19.0074 47.3624 17.9154C47.9632 16.5059 47.5444 15.5206 46.8794 15.1867C46.28 14.8898 45.3782 15.106 44.746 16.2404C43.7087 18.0755 43.3748 18.4189 41.8614 19.6478C40.3698 20.8739 38.0024 22.1096 38.0024 20.5099C38.0024 19.6478 39.3202 17.6909 39.9729 16.3212C40.6394 14.9336 39.9209 13.9305 38.5484 13.9305C35.8485 13.9305 34.0559 17.4008 34.0559 18.6023C34.0559 19.8052 34.6334 19.9762 34.6334 21.3747C34.6334 22.7842 31.6721 24.6111 28.8833 24.6111C26.0753 24.6111 24.5016 24.0131 23.9132 22.3012L23.7271 21.7442C23.0634 19.7915 22.5913 18.3752 21.7634 16.8959C21.3255 16.1132 20.6467 15.5713 20.0638 15.0951C19.2975 14.4929 18.9006 13.9415 18.8185 13.5296C18.7405 13.1218 18.6995 12.3514 20.0077 10.5738C21.3145 8.80853 21.4965 7.47568 20.8424 6.78737C20.6057 6.54242 20.2034 6.38642 19.6847 6.38642C18.7679 6.38642 17.4953 6.87632 16.1816 8.22284C14.1399 10.3343 15.2989 12.3377 15.2989 13.2176C15.2989 14.0975 14.924 14.5956 13.6979 15.7902C12.4663 16.9931 12.0407 18.0235 11.8984 22.1629C11.8437 24.2977 11.4728 25.5238 11.1389 26.6131C10.8502 27.5682 10.5847 28.4645 10.5697 29.7604C10.5478 31.1973 10.7845 32.1237 11.0623 33.1924C11.3305 34.1804 11.6206 35.3107 11.804 37.2019C12.1228 40.3766 11.9764 43.0163 11.3196 45.7696L11.2867 45.9516C11.1773 46.4004 11.0459 46.9464 10.868 47.1448ZM41.9654 46.5222C41.0614 47.2263 40.1119 47.8699 39.1232 48.4489C38.8016 48.5037 38.5156 48.4667 38.3774 48.2382C37.0582 45.9872 36.5628 38.9302 37.8396 38.3158C39.5036 37.5358 42.4826 44.4422 42.2377 45.6642C42.1706 46.0159 42.0817 46.2923 41.9654 46.5222Z" fill="#F14635"/>
</g>
<defs>
<clipPath id="clip0_341_6278">
<rect width="52" height="52" fill="white"/>
</clipPath>
</defs>
</svg>
