<svg width="14" height="15" viewBox="0 0 14 15" fill="none" xmlns="http://www.w3.org/2000/svg">
<path d="M2.09998 11.5496L0.599976 10.7246V8.84961M0.599976 5.84963V3.97463M0.599976 3.97463L2.09998 3.14963M0.599976 3.97463L2.09998 4.79961M5.09998 1.42461L6.59998 0.599609L8.09997 1.42461M11.1 3.14963L12.6 3.97463M12.6 3.97463V5.84963M12.6 3.97463L11.1 4.79961M12.6 8.84961V10.7246L11.1 11.5646M8.09997 13.2746L6.59998 14.0996M6.59998 14.0996L5.09998 13.2746M6.59998 14.0996V12.2246M6.59998 7.34963L8.09997 6.52463M6.59998 7.34963V9.22461M6.59998 7.34963L5.09998 6.50961" stroke="#111625" stroke-width="1.2" stroke-linecap="round" stroke-linejoin="round"/>
</svg>
