<svg width="14" height="15" viewBox="0 0 14 15" fill="none" xmlns="http://www.w3.org/2000/svg">
<path d="M2.09998 11.0996C2.4978 11.0996 2.87933 11.2576 3.16064 11.5389C3.44194 11.8203 3.59998 12.2018 3.59998 12.5996C3.59998 12.9974 3.44194 13.379 3.16064 13.6603C2.87933 13.9416 2.4978 14.0996 2.09998 14.0996C1.70215 14.0996 1.32062 13.9416 1.03932 13.6603C0.758011 13.379 0.599976 12.9974 0.599976 12.5996C0.599976 12.2018 0.758011 11.8203 1.03932 11.5389C1.32062 11.2576 1.70215 11.0996 2.09998 11.0996ZM2.09998 11.0996H10.35M2.09998 11.0996V0.599609H0.599976M10.35 11.0996C10.7478 11.0996 11.1293 11.2576 11.4106 11.5389C11.6919 11.8203 11.85 12.2018 11.85 12.5996C11.85 12.9974 11.6919 13.379 11.4106 13.6603C11.1293 13.9416 10.7478 14.0996 10.35 14.0996C9.95215 14.0996 9.57062 13.9416 9.28932 13.6603C9.00801 13.379 8.84997 12.9974 8.84997 12.5996C8.84997 12.2018 9.00801 11.8203 9.28932 11.5389C9.57062 11.2576 9.95215 11.0996 10.35 11.0996ZM2.09998 2.09961L8.09997 2.52786M12.1725 5.85036L11.8507 8.10036H2.10073M10.35 0.599609L13.35 3.59961M13.35 0.599609L10.35 3.59961" stroke="#111625" stroke-width="1.2" stroke-linecap="round" stroke-linejoin="round"/>
</svg>
