<svg width="18" height="18" viewBox="0 0 18 18" fill="none" xmlns="http://www.w3.org/2000/svg">
<path fill-rule="evenodd" clip-rule="evenodd" d="M8.77168 17.9972C8.46474 17.9105 8.235 17.7646 8.11326 17.5652C7.73526 16.9465 7.72674 15.5383 7.72011 13.9102L7.71679 13.4451C7.70447 11.8028 7.69453 10.3865 8.28758 9.87821C8.51732 9.68258 8.84416 9.61768 9.28705 9.68826C10.9715 9.95021 11.1159 10.9947 11.2467 11.9174L11.2609 12.0197L11.3386 12.5394C11.4902 13.5313 11.8071 15.5899 11.8071 16.6652C11.8071 16.9333 11.7834 17.1393 11.7407 17.2525C11.6692 17.4273 11.4617 17.5959 11.1733 17.7357C10.3881 17.9301 9.58031 18.0181 8.77168 17.9972ZM6.12 17.5292C5.94854 17.4712 5.77888 17.408 5.61126 17.3397C5.499 17.1346 5.41279 16.8111 5.35832 16.3876C5.19253 15.0608 5.33653 13.0727 5.71595 13.0495C6.06789 13.0296 6.29384 14.7718 6.33932 16.0929C6.37105 17.0171 6.27489 17.3951 6.12 17.5292ZM3.762 16.3194C1.48405 14.6866 0 12.0174 0 9.00189C0 4.03058 4.02963 0 9 0C13.9581 0 17.9787 4.00926 18 8.96211V9.04074C17.9938 11.1583 17.238 13.2053 15.8665 14.8187C15.8187 14.7951 15.7301 14.7145 15.5709 14.4739C15.4071 14.2333 13.9922 12.0354 13.9922 9.51584C13.9922 9.02132 14.6979 8.24874 15.3227 7.57042C15.7903 7.06026 16.2322 6.57947 16.3947 6.20147C16.6026 5.71358 16.4577 5.37253 16.2275 5.25695C16.02 5.15416 15.7078 5.229 15.489 5.62168C15.1299 6.2569 15.0144 6.37579 14.4905 6.80116C13.9742 7.22558 13.1547 7.65332 13.1547 7.09958C13.1547 6.80116 13.6108 6.12379 13.8368 5.64963C14.0675 5.16932 13.8188 4.82211 13.3437 4.82211C12.4091 4.82211 11.7886 6.02337 11.7886 6.43926C11.7886 6.85563 11.9885 6.91484 11.9885 7.39895C11.9885 7.88684 10.9634 8.51921 9.99805 8.51921C9.02605 8.51921 8.48132 8.31221 8.27763 7.71963L8.21321 7.52684C7.98347 6.85089 7.82005 6.36063 7.53347 5.84858C7.3819 5.57763 7.14695 5.39005 6.94516 5.22521C6.67989 5.01679 6.54253 4.82589 6.51411 4.68332C6.48711 4.54216 6.4729 4.27547 6.92574 3.66016C7.37811 3.04911 7.44111 2.58774 7.21468 2.34947C7.13274 2.26468 6.99347 2.21068 6.81395 2.21068C6.49658 2.21068 6.05605 2.38026 5.60132 2.84637C4.89458 3.57726 5.29579 4.27074 5.29579 4.57532C5.29579 4.8799 5.166 5.05232 4.74158 5.46584C4.31526 5.88221 4.16795 6.23889 4.11868 7.67179C4.09974 8.41074 3.97137 8.83516 3.85579 9.21221C3.75584 9.54284 3.66395 9.85311 3.65874 10.3017C3.65116 10.7991 3.73311 11.1197 3.82926 11.4897C3.92211 11.8317 4.02253 12.2229 4.086 12.8776C4.19637 13.9765 4.14568 14.8903 3.91832 15.8433L3.90695 15.9063C3.86905 16.0617 3.82358 16.2507 3.762 16.3194ZM14.5265 16.1038C14.2135 16.3476 13.8849 16.5703 13.5426 16.7708C13.4313 16.7897 13.3323 16.7769 13.2845 16.6978C12.8278 15.9186 12.6564 13.4758 13.0983 13.2632C13.6743 12.9932 14.7055 15.3838 14.6207 15.8068C14.5975 15.9286 14.5667 16.0243 14.5265 16.1038Z" fill="#F14635"/>
</svg>
