<svg width="14" height="14" viewBox="0 0 14 14" fill="none" xmlns="http://www.w3.org/2000/svg">
<path d="M0.75 3.75V2.25C0.75 1.85218 0.908035 1.47064 1.18934 1.18934C1.47064 0.908035 1.85218 0.75 2.25 0.75H3.75M0.75 9.75V11.25C0.75 11.6478 0.908035 12.0294 1.18934 12.3107C1.47064 12.592 1.85218 12.75 2.25 12.75H3.75M9.75 0.75H11.25C11.6478 0.75 12.0294 0.908035 12.3107 1.18934C12.592 1.47064 12.75 1.85218 12.75 2.25V3.75M9.75 12.75H11.25C11.6478 12.75 12.0294 12.592 12.3107 12.3107C12.592 12.0294 12.75 11.6478 12.75 11.25V9.75M6.75 7.125L9.75 5.25M6.75 7.125L3.75 5.25M6.75 7.125V10.5M9.75 5.25V8.625L6.75 10.5M9.75 5.25L6.75 3.375L3.75 5.25M3.75 5.25V8.625L6.75 10.5" stroke="white" stroke-width="1.5" stroke-linecap="round" stroke-linejoin="round"/>
</svg>
