<svg width="15" height="14" viewBox="0 0 15 14" fill="none" xmlns="http://www.w3.org/2000/svg">
<path d="M7.32904 0.000233296C7.43771 0.000646416 7.54461 0.0278048 7.64029 0.0793112C7.73598 0.130818 7.81752 0.205088 7.87771 0.295567L7.92237 0.3729L9.82371 4.2269L14.077 4.84357C14.571 4.91557 14.797 5.47023 14.5457 5.8609L14.499 5.92423L14.447 5.98157L11.3644 8.9809L12.091 13.2176C12.11 13.3281 12.1007 13.4416 12.0642 13.5476C12.0277 13.6536 11.9651 13.7487 11.8821 13.8241C11.7991 13.8995 11.6985 13.9528 11.5895 13.979C11.4804 14.0053 11.3666 14.0036 11.2584 13.9742L11.191 13.9509L11.1237 13.9202L7.32837 11.9202L3.52437 13.9202C3.45437 13.9569 3.38304 13.9802 3.31104 13.9909L3.24037 13.9976C3.14733 14.001 3.0546 13.9849 2.96812 13.9504C2.88164 13.9159 2.80333 13.8637 2.73818 13.7972C2.67304 13.7307 2.62251 13.6513 2.58982 13.5641C2.55714 13.4769 2.54302 13.3839 2.54837 13.2909L2.55704 13.2176L3.28371 8.9809L0.201708 5.9809C0.12201 5.90327 0.0629844 5.80695 0.030001 5.7007C-0.00298249 5.59444 -0.00887737 5.48163 0.0128525 5.37252C0.0345823 5.2634 0.0832473 5.16145 0.154421 5.07594C0.225594 4.99043 0.317017 4.92407 0.420374 4.8829L0.495708 4.8589L0.571708 4.84357L4.82437 4.2269L6.72637 0.373567C6.77943 0.259307 6.86476 0.163073 6.97185 0.0967324C7.07894 0.0303921 7.20311 -0.0031532 7.32904 0.000233296ZM7.32904 2.1829V10.5002C7.38274 10.5002 7.43624 10.5067 7.48837 10.5196L7.56504 10.5436L7.63971 10.5769L10.5484 12.1096L9.99104 8.8609C9.96357 8.70035 9.99582 8.5353 10.0817 8.3969L10.1284 8.3309L10.183 8.2709L12.547 5.9689L9.28638 5.4969C9.12521 5.47351 8.97818 5.39193 8.87304 5.26757L8.82438 5.2029L8.78437 5.13223L7.32904 2.1829Z" fill="#DC9E3A"/>
</svg>
