 <svg
      width="64"
      height="29"
      viewBox="0 0 64 29"
      fill="none"
      xmlns="http://www.w3.org/2000/svg"
    >
      <path
        d="M49.0711 0.00438419H14.0203C6.27801 0.00438419 0 6.27801 0 14.0203C0 21.7626 6.27801 28.0406 14.0203 28.0406H49.0711C56.8134 28.0406 63.0914 21.7626 63.0914 14.0203C63.0914 6.27801 56.8134 0 49.0711 0V0.00438419ZM45.5638 22.7885C43.0386 22.7885 40.7676 21.7188 39.1674 20.009C37.2823 17.9397 34.5685 16.6464 31.5479 16.6464C28.5272 16.6464 25.8091 17.9397 23.924 20.0134C22.3238 21.7188 20.0528 22.7885 17.5276 22.7885C12.6875 22.7885 8.76379 18.8647 8.76379 14.0247C8.76379 9.18466 12.6875 5.2609 17.5276 5.2609C20.0528 5.2609 22.3238 6.33062 23.924 8.03603C25.8091 10.1053 28.5229 11.3986 31.5479 11.3986C34.5685 11.3986 37.2866 10.1053 39.1718 8.03164C40.772 6.32624 43.0429 5.25652 45.5682 5.25652C50.4082 5.25652 54.332 9.18028 54.332 14.0203C54.332 18.8603 50.4082 22.7841 45.5682 22.7841L45.5638 22.7885Z"
        fill="#B8FFB0"
      />
    </svg>