 <svg
      width="11"
      height="14"
      viewBox="0 0 11 14"
      fill="none"
      xmlns="http://www.w3.org/2000/svg"
    >
      <path
        d="M2.72 6.0533V3.38664C2.72 2.67939 3.00095 2.00112 3.50105 1.50102C4.00115 1.00092 4.67942 0.719971 5.38667 0.719971C6.09391 0.719971 6.77219 1.00092 7.27229 1.50102C7.77238 2.00112 8.05333 2.67939 8.05333 3.38664V6.0533M0.720001 7.38664C0.720001 7.03302 0.860477 6.69388 1.11053 6.44383C1.36057 6.19378 1.69971 6.0533 2.05333 6.0533H8.72C9.07362 6.0533 9.41276 6.19378 9.66281 6.44383C9.91286 6.69388 10.0533 7.03302 10.0533 7.38664V11.3866C10.0533 11.7403 9.91286 12.0794 9.66281 12.3294C9.41276 12.5795 9.07362 12.72 8.72 12.72H2.05333C1.69971 12.72 1.36057 12.5795 1.11053 12.3294C0.860477 12.0794 0.720001 11.7403 0.720001 11.3866V7.38664ZM4.72 9.38664C4.72 9.56345 4.79024 9.73302 4.91526 9.85804C5.04029 9.98307 5.20986 10.0533 5.38667 10.0533C5.56348 10.0533 5.73305 9.98307 5.85807 9.85804C5.9831 9.73302 6.05333 9.56345 6.05333 9.38664C6.05333 9.20983 5.9831 9.04026 5.85807 8.91523C5.73305 8.79021 5.56348 8.71997 5.38667 8.71997C5.20986 8.71997 5.04029 8.79021 4.91526 8.91523C4.79024 9.04026 4.72 9.20983 4.72 9.38664Z"
        stroke="#8796AF"
        strokeWidth="1.44"
        strokeLinecap="round"
        strokeLinejoin="round"
      />
    </svg>