<svg width="15" height="15" viewBox="0 0 15 15" fill="none" xmlns="http://www.w3.org/2000/svg">
<path d="M9.91671 0.75V14.0833M4.91671 5.75L6.58337 7.41667L4.91671 9.08333M14.0834 2.41667C14.0834 1.97464 13.9078 1.55072 13.5952 1.23816C13.2827 0.925595 12.8587 0.75 12.4167 0.75H2.41671C1.97468 0.75 1.55076 0.925595 1.2382 1.23816C0.925636 1.55072 0.750041 1.97464 0.750041 2.41667V12.4167C0.750041 12.8587 0.925636 13.2826 1.2382 13.5952C1.55076 13.9077 1.97468 14.0833 2.41671 14.0833H12.4167C12.8587 14.0833 13.2827 13.9077 13.5952 13.5952C13.9078 13.2826 14.0834 12.8587 14.0834 12.4167V2.41667Z" stroke="#C5CFDD" stroke-width="1.5" stroke-linecap="round" stroke-linejoin="round"/>
</svg>
