<svg width="15" height="15" viewBox="0 0 15 15" fill="none" xmlns="http://www.w3.org/2000/svg">
<path d="M4.91667 0.75V14.0833M9.91667 5.75L8.25 7.41667L9.91667 9.08333M0.75 2.41667C0.75 1.97464 0.925595 1.55072 1.23816 1.23816C1.55072 0.925595 1.97464 0.75 2.41667 0.75H12.4167C12.8587 0.75 13.2826 0.925595 13.5952 1.23816C13.9077 1.55072 14.0833 1.97464 14.0833 2.41667V12.4167C14.0833 12.8587 13.9077 13.2826 13.5952 13.5952C13.2826 13.9077 12.8587 14.0833 12.4167 14.0833H2.41667C1.97464 14.0833 1.55072 13.9077 1.23816 13.5952C0.925595 13.2826 0.75 12.8587 0.75 12.4167V2.41667Z" stroke="#C5CFDD" stroke-width="1.5" stroke-linecap="round" stroke-linejoin="round"/>
</svg>
