<svg width="158" height="22" viewBox="0 0 158 22" fill="none" xmlns="http://www.w3.org/2000/svg">
<path d="M34.8228 0.800963H9.94936C4.45512 0.800963 0 5.25297 0 10.7472C0 16.2414 4.45512 20.6966 9.94936 20.6966H34.8228C40.317 20.6966 44.7721 16.2414 44.7721 10.7472C44.7721 5.25297 40.317 0.797852 34.8228 0.797852V0.800963ZM32.3339 16.9694C30.5419 16.9694 28.9303 16.2103 27.7947 14.997C26.457 13.5286 24.5312 12.6108 22.3876 12.6108C20.2441 12.6108 18.3152 13.5286 16.9774 15.0001C15.8418 16.2103 14.2303 16.9694 12.4383 16.9694C9.00358 16.9694 6.21913 14.185 6.21913 10.7503C6.21913 7.31565 9.00358 4.5312 12.4383 4.5312C14.2303 4.5312 15.8418 5.29031 16.9774 6.50053C18.3152 7.96898 20.2409 8.88676 22.3876 8.88676C24.5312 8.88676 26.4601 7.96898 27.7978 6.49742C28.9334 5.2872 30.545 4.52808 32.337 4.52808C35.7716 4.52808 38.5561 7.31254 38.5561 10.7472C38.5561 14.1819 35.7716 16.9663 32.337 16.9663L32.3339 16.9694Z" fill="#B8FFB0"/>
<path d="M62.4815 5.98682V9.59883H60.6273C59.6037 9.59883 58.7326 9.95038 58.0202 10.6566C57.3046 11.3628 56.9468 12.2713 56.9468 13.3882V21.1411H53.0922V6.19215H56.8006V7.86593C58.0171 6.61215 59.5135 5.98682 61.2931 5.98682H62.4815Z" fill="#B8FFB0"/>
<path d="M66.6091 20.5105C65.3833 19.8541 64.4033 18.9363 63.6691 17.751C62.9349 16.5656 62.5678 15.2123 62.5678 13.6847C62.5678 12.1572 62.9349 10.7976 63.6691 9.60296C64.4033 8.40829 65.3833 7.48429 66.6091 6.82784C67.8349 6.17139 69.154 5.84473 70.5634 5.84473C71.9727 5.84473 73.2918 6.17139 74.5176 6.82784C75.7434 7.48429 76.7234 8.40829 77.4576 9.60296C78.1918 10.7976 78.5589 12.1572 78.5589 13.6847C78.5589 15.2123 78.1918 16.5688 77.4576 17.751C76.7234 18.9363 75.7434 19.8541 74.5176 20.5105C73.2918 21.167 71.9727 21.4937 70.5634 21.4937C69.154 21.4937 67.8349 21.167 66.6091 20.5105ZM73.5189 16.6808C74.3123 15.8781 74.7074 14.8794 74.7074 13.6847C74.7074 12.4901 74.3123 11.4634 73.5189 10.6607C72.7256 9.85807 71.7425 9.45674 70.5634 9.45674C69.3842 9.45674 68.4011 9.85807 67.6078 10.6607C66.8145 11.4634 66.4193 12.4714 66.4193 13.6847C66.4193 14.8981 66.8145 15.8781 67.6078 16.6808C68.4011 17.4834 69.3842 17.8848 70.5634 17.8848C71.7425 17.8848 72.7256 17.4834 73.5189 16.6808Z" fill="#B8FFB0"/>
<path d="M101.881 20.5105C100.656 19.8541 99.6755 18.9363 98.9413 17.751C98.2071 16.5656 97.84 15.2123 97.84 13.6847C97.84 12.1572 98.2071 10.7976 98.9413 9.60296C99.6755 8.40829 100.656 7.48429 101.881 6.82784C103.107 6.17139 104.426 5.84473 105.836 5.84473C107.245 5.84473 108.564 6.17139 109.79 6.82784C111.016 7.48429 111.996 8.40829 112.73 9.60296C113.464 10.7976 113.831 12.1572 113.831 13.6847C113.831 15.2123 113.464 16.5688 112.73 17.751C111.996 18.9363 111.016 19.8541 109.79 20.5105C108.564 21.167 107.245 21.4937 105.836 21.4937C104.426 21.4937 103.107 21.167 101.881 20.5105ZM108.791 16.6808C109.584 15.8781 109.98 14.8794 109.98 13.6847C109.98 12.4901 109.584 11.4634 108.791 10.6607C107.998 9.85807 107.015 9.45674 105.836 9.45674C104.656 9.45674 103.673 9.85807 102.88 10.6607C102.087 11.4634 101.692 12.4714 101.692 13.6847C101.692 14.8981 102.087 15.8781 102.88 16.6808C103.673 17.4834 104.656 17.8848 105.836 17.8848C107.015 17.8848 107.998 17.4834 108.791 16.6808Z" fill="#B8FFB0"/>
<path d="M118.141 20.8454C117.173 20.4161 116.421 19.8188 115.882 19.0534C115.341 18.2912 115.042 17.4294 114.983 16.4681H118.807C118.866 16.9565 119.137 17.3797 119.619 17.7312C120.101 18.0828 120.72 18.2601 121.473 18.2601C122.17 18.2601 122.714 18.1481 123.11 17.921C123.505 17.697 123.704 17.3485 123.704 16.8788C123.704 16.409 123.47 16.0605 123.007 15.8365C122.543 15.6125 121.809 15.3823 120.804 15.1459C119.684 14.8721 118.76 14.589 118.038 14.2934C117.317 13.9979 116.691 13.5312 116.169 12.8841C115.646 12.237 115.388 11.3565 115.388 10.2427C115.388 9.42141 115.643 8.67163 116.156 7.99652C116.666 7.32141 117.37 6.79252 118.256 6.40985C119.146 6.02718 120.148 5.8374 121.271 5.8374C122.313 5.8374 123.281 6.04896 124.167 6.46896C125.057 6.88896 125.776 7.46763 126.326 8.20185C126.877 8.93608 127.173 9.76363 127.21 10.6814H123.442C123.402 10.2116 123.178 9.82586 122.761 9.52097C122.344 9.21919 121.8 9.06674 121.125 9.06674C120.546 9.06674 120.086 9.1663 119.75 9.35919C119.41 9.55519 119.242 9.82897 119.242 10.1805C119.242 10.6503 119.479 11.0019 119.952 11.2383C120.425 11.4716 121.184 11.7081 122.226 11.9414C123.327 12.2152 124.23 12.4952 124.936 12.7783C125.642 13.0614 126.255 13.5125 126.774 14.1285C127.297 14.7445 127.555 15.5721 127.555 16.6112C127.555 18.1388 126.995 19.3334 125.875 20.1921C124.755 21.0539 123.287 21.4832 121.47 21.4832C120.213 21.4832 119.102 21.2686 118.138 20.8361L118.141 20.8454Z" fill="#B8FFB0"/>
<path d="M140.586 6.84028C141.774 7.50606 142.72 8.41762 143.426 9.57185C144.132 10.7261 144.484 12.0203 144.484 13.4483C144.484 13.9772 144.425 14.5341 144.31 15.1221H133.01C133.222 16.1394 133.657 16.9265 134.314 17.4865C134.97 18.0434 135.801 18.3234 136.806 18.3234C137.577 18.3234 138.231 18.1803 138.763 17.8972C139.295 17.6141 139.733 17.1879 140.082 16.6185H143.964C143.404 18.0465 142.505 19.2163 141.27 20.1279C140.035 21.0394 138.536 21.4937 136.778 21.4937C135.424 21.4937 134.149 21.167 132.954 20.5105C131.756 19.8541 130.801 18.9363 130.086 17.751C129.37 16.5656 129.012 15.2123 129.012 13.6847C129.012 12.1572 129.37 10.7976 130.086 9.60296C130.801 8.40829 131.753 7.48429 132.939 6.82784C134.127 6.17139 135.406 5.84473 136.778 5.84473C138.15 5.84473 139.4 6.17762 140.589 6.8434L140.586 6.84028ZM134.354 9.82074C133.707 10.359 133.268 11.1181 133.035 12.095H140.539C140.346 11.1741 139.936 10.4305 139.307 9.86429C138.679 9.29807 137.832 9.01185 136.771 9.01185C135.804 9.01185 134.998 9.28251 134.351 9.82074H134.354Z" fill="#B8FFB0"/>
<path d="M150.536 21.1401H146.682V0H150.536V21.1401Z" fill="#B8FFB0"/>
<path d="M92.4874 6.84135C93.6261 7.50713 94.5438 8.43736 95.2407 9.63202C95.9376 10.8267 96.283 12.1676 96.283 13.6547C96.283 15.1418 95.9345 16.5138 95.2407 17.7054C94.5438 18.9 93.6261 19.8303 92.4874 20.4961C91.3487 21.1618 90.1509 21.4947 88.894 21.4947C87.8705 21.4947 86.9714 21.3423 86.1998 21.0405C85.4283 20.7387 84.7407 20.2627 84.1434 19.6156V21.1432H80.4349V0H84.2896V7.57558C84.8683 6.98757 85.5309 6.55202 86.2745 6.26891C87.018 5.98579 87.8923 5.84268 88.8972 5.84268C90.1541 5.84268 91.3487 6.17557 92.4905 6.84135H92.4874ZM91.2398 16.6787C92.0332 15.876 92.4283 14.868 92.4283 13.6547C92.4283 12.4414 92.0332 11.4614 91.2398 10.6587C90.4465 9.85603 89.4634 9.45469 88.2843 9.45469C87.1052 9.45469 86.122 9.85603 85.3287 10.6587C84.5354 11.4614 84.1403 12.46 84.1403 13.6547C84.1403 14.8494 84.5354 15.876 85.3287 16.6787C86.122 17.4814 87.1052 17.8827 88.2843 17.8827C89.4634 17.8827 90.4465 17.4814 91.2398 16.6787Z" fill="#B8FFB0"/>
<path d="M157.091 21.1401H153.237V0H157.091V21.1401Z" fill="#B8FFB0"/>
</svg>
