 <svg
      width="10"
      height="14"
      viewBox="0 0 10 14"
      fill="none"
      xmlns="http://www.w3.org/2000/svg"
    >
      <path
        d="M0.720001 12.72V11.3866C0.720001 10.6794 1.00095 10.0011 1.50105 9.50102C2.00115 9.00092 2.67942 8.71997 3.38667 8.71997H6.05333C6.76058 8.71997 7.43886 9.00092 7.93895 9.50102C8.43905 10.0011 8.72 10.6794 8.72 11.3866V12.72M2.05333 3.38664C2.05333 4.09388 2.33429 4.77216 2.83438 5.27226C3.33448 5.77235 4.01276 6.0533 4.72 6.0533C5.42725 6.0533 6.10552 5.77235 6.60562 5.27226C7.10572 4.77216 7.38667 4.09388 7.38667 3.38664C7.38667 2.67939 7.10572 2.00112 6.60562 1.50102C6.10552 1.00092 5.42725 0.719971 4.72 0.719971C4.01276 0.719971 3.33448 1.00092 2.83438 1.50102C2.33429 2.00112 2.05333 2.67939 2.05333 3.38664Z"
        stroke="#8796AF"
        strokeWidth="1.44"
        strokeLinecap="round"
        strokeLinejoin="round"
      />
    </svg>